<?xml version="1.0" standalone="no"?>
<!DOCTYPE svg PUBLIC "-//W3C//DTD SVG 1.1//EN" "http://www.w3.org/Graphics/SVG/1.1/DTD/svg11.dtd" >
<svg xmlns="http://www.w3.org/2000/svg">
<metadata></metadata>
<defs>
<font id="high_tower_textitalic" horiz-adv-x="1608" >
<font-face units-per-em="2048" ascent="1638" descent="-410" />
<missing-glyph horiz-adv-x="487" />
<glyph horiz-adv-x="2048" />
<glyph horiz-adv-x="2048" />
<glyph unicode="&#xd;" horiz-adv-x="2048" />
<glyph unicode=" "  horiz-adv-x="487" />
<glyph unicode="&#x09;" horiz-adv-x="487" />
<glyph unicode="&#xa0;" horiz-adv-x="487" />
<glyph unicode="!" horiz-adv-x="547" d="M80 90q0 55 36.5 92t86.5 37q98 0 98 -110q0 -57 -34.5 -96.5t-82.5 -39.5q-104 0 -104 117zM193 420q40 323 40 774q0 61 19 83q23 28 106 46q27 6 43 6q43 0 43 -47q0 -36 -16 -94q-83 -295 -127 -653q-13 -108 -76 -140q-18 -9 -27 -3q-8 6 -5 28z" />
<glyph unicode="&#x22;" horiz-adv-x="780" d="M154 868q31 183 6 379q-2 13 -2 23q0 31 21 43.5t81 19.5q25 3 40 3q47 0 47 -45q0 -141 -118 -433q-9 -22 -47 -31q-21 -4 -27 5.5t-1 35.5zM518 868q33 174 6 379q-1 12 -1 22q0 52 102 64q25 3 40 3q46 0 46 -45q0 -141 -117 -433q-9 -22 -47 -31q-21 -4 -27.5 5.5 t-1.5 35.5z" />
<glyph unicode="#" horiz-adv-x="1073" d="M49 281q24 77 66 71q52 -7 151 -18q16 70 47 219q-58 5 -186 18q-26 3 -8 64q23 77 65 72q56 -8 162 -21q12 57 37 178q9 23 39 15q39 -20 29 -62q-11 -48 -35 -141q98 -11 284 -35q17 71 48 223q11 23 38 15q39 -20 29 -62q-13 -62 -43 -184q80 -7 207 -23q15 -2 4 -47 q-29 -82 -72 -78q-94 11 -168 17q-24 -114 -49 -221q70 -8 215 -25q18 -2 4 -45q-25 -84 -69 -80q-54 4 -180 19q-3 -12 -52 -224q-4 -14 -28 -6q-38 26 -31 64q18 94 39 176q-62 5 -285 30l-59 -264q-5 -14 -29 -6q-39 26 -31 64q16 73 48 215q-59 6 -179 18q-26 3 -8 64z M340 326q97 -13 283 -37q16 72 49 221q-129 17 -285 35q-18 -97 -47 -219z" />
<glyph unicode="$" horiz-adv-x="821" d="M-4 164q0 80 70 80q68 0 86 -80q19 -85 110 -105l60 293q-139 70 -185.5 116t-46.5 118q0 109 83 172t224 63h17l30 150q6 27 35 12q42 -21 33 -63q-7 -35 -23 -105q103 -15 169.5 -60t66.5 -102q0 -80 -74 -80q-61 0 -82 75.5t-94 94.5q-24 -117 -55 -274 q153 -74 204.5 -123t51.5 -123q0 -109 -79 -173q-83 -66 -237 -66h-41q-14 -72 -38 -197q-5 -18 -27 -4q-44 20 -35 65l29 144q-116 16 -186 67q-66 47 -66 105zM217 635q0 -47 46 -83q19 -14 87 -50q19 84 51 252h-16q-168 0 -168 -119zM334 51h28q177 0 177 123 q0 70 -150 148q-19 -94 -55 -271z" />
<glyph unicode="%" horiz-adv-x="1552" d="M66 487q0 153 98 253q93 96 225 96q106 0 168 -63q59 -61 59 -161q0 -153 -94.5 -256.5t-224.5 -103.5q-105 0 -168 62t-63 173zM221 492q0 -170 101 -170q135 0 135 274q0 172 -97 172q-139 0 -139 -276zM432 -35q44 72 543 895q12 20 43 -4q35 -26 26 -41 q-374 -614 -542 -899q-7 -12 -22 -7q-9 4 -23 15q-36 22 -25 41zM885 201q0 152 98 252q94 96 225 96q106 0 167 -61.5t61 -161.5q0 -154 -95 -257.5t-225 -103.5q-105 0 -168 62t-63 174zM1040 205q0 -170 101 -170q135 0 135 274q0 172 -96 172q-140 0 -140 -276z" />
<glyph unicode="&#x26;" horiz-adv-x="1509" d="M76 403q0 216 130 340q115 109 279 109q57 0 96.5 -2t36.5 -2q25 0 25 94q0 246 -178 246q-25 0 -70 -2q-20 -1 -24 35q-4 38 8 47q124 71 178 71q75 0 119.5 -94.5t44.5 -249.5q0 -227 -113 -438q-107 -197 -289 -338q88 -104 246 -104q267 0 406 213q116 179 116 381 q0 107 -28 183q-27 73 -62 73q-18 0 -88 -47q-3 -3 -7 -3q-25 0 -25 22q0 3 2 5q58 70 131 119q21 18 41 18q26 0 157 -92q175 -123 193 -123t80 43q3 3 7 3q25 0 25 -22q0 -3 -2 -5q-63 -75 -137 -127q-26 -19 -46 -19q-23 0 -48 27q-62 67 -150 133q31 -68 31 -172 q0 -278 -139 -475q-188 -266 -502 -266q-204 0 -324 111.5t-120 307.5zM240 455q0 -99 41 -181q125 92 207 213q75 111 75 183q0 102 -125 102q-79 0 -134 -73q-64 -87 -64 -244z" />
<glyph unicode="'" horiz-adv-x="416" d="M154 868q31 183 6 379q-2 13 -2 23q0 31 21 43.5t81 19.5q25 3 40 3q47 0 47 -45q0 -141 -118 -433q-9 -22 -47 -31q-21 -4 -27 5.5t-1 35.5z" />
<glyph unicode="(" horiz-adv-x="793" d="M123 494q0 283 179 548q172 253 474 443q24 15 37 15q16 0 25 -19q12 -38 -9 -54q-275 -209 -399 -427q-137 -242 -137 -570q0 -199 74 -367q76 -173 249 -360q21 -18 -4 -53q-10 -15 -24 -15q-15 0 -37 19q-428 372 -428 840z" />
<glyph unicode=")" horiz-adv-x="793" d="M-49 -346q-13 37 8 53q276 209 400 428q137 241 137 570q0 198 -75.5 368.5t-248.5 358.5q-21 17 4 53q11 15 24 15q15 0 38 -19q428 -372 428 -840q0 -284 -180 -548q-171 -254 -474 -443q-23 -15 -37 -15q-15 0 -24 19z" />
<glyph unicode="*" horiz-adv-x="1044" d="M149 1076q0 30 31 79q40 62 73 62q18 0 34 -17q208 -223 239 -215q24 4 24 96q0 75 -15 213q-2 12 -2 19q0 31 32 31q24 0 78 -15q83 -22 83 -61q0 -12 -7 -25q-133 -254 -121 -297q3 -12 30 -12q90 0 265 104q11 7 21 7q43 0 47 -101q4 -104 -44 -104q-5 0 -12 2 q-291 54 -330 35q-6 -6 -6 -16q0 -60 181 -240q21 -22 21 -36q0 -26 -85 -57q-43 -15 -70 -15q-40 0 -45 38q-39 307 -71 317q-3 2 -7 2q-54 0 -176 -243q-15 -32 -33 -32q-25 0 -75 64q-41 52 -41 81q0 23 27 32q260 132 274 166q3 44 -289 102q-31 7 -31 36z" />
<glyph unicode="+" horiz-adv-x="1083" d="M66 389q0 45 57 45h317v357q0 49 99 49q28 0 28 -15v-391h361q16 0 16 -16q0 -20 -17.5 -38t-41.5 -18h-318v-352q0 -49 -80 -49q-47 0 -47 21v380h-358q-16 0 -16 27z" />
<glyph unicode="," horiz-adv-x="504" d="M2 -303q0 20 64 57q116 68 116 160q0 36 -47 72q-67 51 -67 106q0 52 32 88q36 41 97 41q129 0 129 -147q0 -276 -271 -414q-19 -10 -28 -10q-15 0 -23 33q-2 8 -2 14z" />
<glyph unicode="-" horiz-adv-x="690" d="M84 473q0 112 51 119q56 7 383 67q37 7 45 6q19 -4 19 -32q0 -99 -60 -109q-177 -27 -344 -75q-46 -14 -65 -14q-29 0 -29 38z" />
<glyph unicode="." horiz-adv-x="504" d="M63 102q0 59 40 99.5t92 40.5q110 0 110 -123q0 -61 -37 -104.5t-90 -43.5q-115 0 -115 131z" />
<glyph unicode="/" horiz-adv-x="1008" d="M-195 -293l1190 1780q13 20 56 -2.5t26 -46.5q-306 -452 -1188 -1778q-16 -24 -59 2q-39 24 -25 45z" />
<glyph unicode="0" horiz-adv-x="928" d="M35 326q0 208 142 356q135 141 310 141q164 0 253 -91q83 -87 83 -236q0 -211 -133.5 -359.5t-316.5 -148.5q-162 0 -252 94q-86 90 -86 244zM205 342q0 -262 186 -262q114 0 188 111q76 115 76 303q0 241 -182 241q-114 0 -191 -113t-77 -280z" />
<glyph unicode="1" horiz-adv-x="598" d="M15 10q-1 7 1 21q5 23 58 41q61 20 78 110q20 107 73 404q6 32 6 53q0 65 -73 84l-6 1q-31 9 -37 16q-6 8 0 30q7 27 24 32q7 2 45 -1q112 -9 275 4q51 4 52 -17q0 -6 -1 -18q-3 -28 -55 -41q-64 -16 -80 -111l-70 -403q-5 -30 -5 -51q0 -67 71 -86q52 -15 43 -47 q-8 -27 -25 -32q-8 -2 -47 1q-129 10 -276 -4q-50 -5 -51 14z" />
<glyph unicode="2" horiz-adv-x="803" d="M-12 24q0 18 10 25q281 204 385 316t104 213q0 139 -157 139q-104 0 -217 -90q-24 -19 -56 20q-19 25 21 60q145 127 313 127q127 0 200 -56t73 -151q0 -100 -95 -208q-83 -94 -301 -259q-18 -14 -18 -22q0 -9 29 -9q178 0 231 2q78 3 123.5 21.5l45.5 18.5q7 0 17 -5 q31 -10 6 -31q-35 -39 -124 -223q-14 -27 -46 -18q-24 6 -12 43q15 45 -28 55q-118 14 -492 14q-12 0 -12 18z" />
<glyph unicode="3" horiz-adv-x="735" d="M-94 -311q0 39 53 47q438 63 438 354q0 78 -54 123t-136 45q-27 0 -66 -4q-29 -3 -39 31q-8 31 27 45q328 125 328 293q0 110 -140 110q-104 0 -196 -51q-26 -14 -51 20q-9 12 -9 20q0 13 33 34q133 82 281 82q262 0 262 -189q0 -193 -303 -307q113 -1 180 -67 q61 -61 61 -152q0 -188 -179 -314q-174 -123 -462 -151q-28 -3 -28 31z" />
<glyph unicode="4" horiz-adv-x="930" d="M-30 56q0 29 7 36q534 554 650 742q7 11 27 11q19 0 59 -14q21 -7 6 -59q-12 -62 -29 -143l-61 -514q70 0 104 8q23 5 45 37q12 17 33 12q13 -3 13 -19q0 -22 -25 -100q-20 -59 -56 -55q-50 3 -131 8q-5 -58 -30 -289q-2 -18 -16 -25.5t-68 -23.5q-44 -12 -62 -9 q-17 3 -14 22q21 135 49 327q-173 6 -496 19q-5 0 -5 29zM143 129l338 -8q11 81 56 469q-140 -186 -394 -461z" />
<glyph unicode="5" horiz-adv-x="756" d="M8 -336q-8 30 35 43q149 45 256 158q123 129 123 287q0 205 -350 260q-21 3 -15 28q2 9 76 316q10 42 66 43q113 1 348 12q62 3 100 39q26 24 60 24q37 0 12 -40q-24 -46 -57 -121q-15 -44 -51 -44q-14 0 -29 7q-94 39 -258 39q-27 0 -35 -27q-47 -157 -60 -215 q367 -66 367 -299q0 -382 -553 -539q-26 -7 -35 29z" />
<glyph unicode="6" horiz-adv-x="936" d="M47 379q0 337 224 592q206 233 524 321q26 7 34 -22q9 -28 -34 -47q-394 -173 -523 -543q100 96 240 96q141 0 227 -86.5t86 -232.5q0 -210 -127 -346q-122 -131 -297 -131q-165 0 -257 97q-97 103 -97 302zM203 336q0 -264 215 -264q108 0 171.5 100.5t63.5 271.5 q0 244 -190 244q-108 0 -183 -98q-77 -102 -77 -254z" />
<glyph unicode="7" horiz-adv-x="852" d="M18 -334q263 351 580 989q13 27 -6 27q-53 0 -233 -15q-194 -15 -273 -28q-19 -3 -28.5 3t-8.5 20q0 15 47 96q18 29 43 76q19 24 31 24q29 0 43 -22q16 -26 84 -29q76 -4 461 -8q20 -1 25 -15t-7 -28q-50 -60 -245 -441q-168 -330 -308 -628q-2 -13 -92 -32 q-83 -17 -108 -17q-26 0 -5 28z" />
<glyph unicode="8" horiz-adv-x="961" d="M43 279q0 248 309 380q-170 102 -170 256q0 151 117 244q107 86 254 86q139 0 224 -63q89 -67 89 -181q0 -220 -252 -325q217 -120 217 -314q0 -160 -123.5 -268t-293.5 -108q-164 0 -267.5 80.5t-103.5 212.5zM203 289q0 -96 59.5 -153.5t159.5 -57.5q101 0 170 66 q76 72 76 190q0 84 -47 144q-51 64 -181 134q-237 -103 -237 -323zM330 954q0 -73 40 -123q42 -53 152 -110q205 83 205 262q0 77 -48.5 124.5t-131.5 47.5q-92 0 -154.5 -57t-62.5 -144z" />
<glyph unicode="9" horiz-adv-x="905" d="M49 377q0 186 119.5 315t294.5 129q142 0 232 -91q93 -95 93 -257q0 -279 -207 -528q-197 -236 -485 -338q-14 -4 -22 39q-5 25 61 57q128 63 247 185q112 117 171 239q-97 -70 -213 -70q-129 0 -208 82q-83 86 -83 238zM217 391q0 -246 166 -246q104 0 178 93 q82 101 82 266q0 221 -199 221q-107 0 -169 -95q-58 -91 -58 -239z" />
<glyph unicode=":" horiz-adv-x="504" d="M70 102q0 59 39.5 99.5t93.5 40.5q110 0 110 -123q0 -62 -37.5 -105t-91.5 -43q-114 0 -114 131zM152 645q0 59 39.5 99t93.5 40q110 0 110 -120q0 -61 -38 -104.5t-91 -43.5q-114 0 -114 129z" />
<glyph unicode=";" horiz-adv-x="504" d="M2 -303q0 20 64 57q116 68 116 160q0 36 -47 72q-67 51 -67 106q0 52 32 88q36 41 97 41q129 0 129 -147q0 -276 -271 -414q-19 -10 -28 -10q-15 0 -23 33q-2 8 -2 14zM139 645q0 58 41 100q40 39 92 39q111 0 111 -120q0 -62 -37.5 -105t-89.5 -43q-117 0 -117 129z" />
<glyph unicode="&#x3c;" horiz-adv-x="803" d="M42 381q0 14 28 33l512 352q39 27 51 10q7 -10 7 -17q0 -12 -34 -42l-375 -336l381 -342q36 -32 23 -51q-13 -20 -47 4l-518 356q-28 19 -28 33z" />
<glyph unicode="=" horiz-adv-x="1083" d="M150 211q0 57 57 57h627q18 0 18 -20q0 -26 -18 -50t-41 -24h-627q-16 0 -16 37zM150 563q0 58 57 58h627q18 0 18 -19q0 -26 -18 -50t-41 -24h-627q-16 0 -16 35z" />
<glyph unicode="&#x3e;" horiz-adv-x="803" d="M83 3q0 12 34 42l375 336l-381 342q-36 32 -23 51q13 20 47 -4l518 -356q28 -19 28 -33t-28 -33l-512 -352q-39 -27 -51 -10q-7 10 -7 17z" />
<glyph unicode="?" horiz-adv-x="756" d="M70 90q0 54 36 91.5t84 37.5q101 0 101 -110q0 -57 -34.5 -96.5t-82.5 -39.5q-104 0 -104 117zM135 610q0 78 46 126q40 41 143 83l149 62q152 62 152 172q0 75 -56 128q-59 56 -153 56q-52 0 -99 -78q-34 -57 -84 -57q-83 0 -83 108q0 55 59.5 92t152.5 37 q165 0 267 -93q92 -84 92 -197q0 -134 -60 -207q-53 -66 -192 -125l-135 -58q-74 -31 -74 -77q0 -32 27 -56q20 -18 108 -73q15 -9 0 -41q-21 -47 -37 -37q-118 57 -167 105q-56 55 -56 130z" />
<glyph unicode="@" horiz-adv-x="2007" d="M119 440q0 387 272 645t672 258q367 0 581 -184q224 -194 224 -549q0 -265 -129 -417q-116 -136 -289 -136q-125 0 -197 65q-75 66 -77 185q-1 20 -19 20q-12 0 -20 -14q-160 -256 -316 -256q-97 0 -153 71.5t-56 199.5q0 243 152 420q157 182 307 182q93 0 168 -27 q64 -23 84 0q46 44 57 44q7 0 17 -7q19 -9 -6 -86q-37 -109 -63 -263q-23 -138 -23 -212q0 -236 190 -236q113 0 195 108q94 124 94 337q0 347 -196 523q-188 169 -541 169q-333 0 -552 -234t-219 -589q0 -365 213 -581t578 -216q269 0 580 168q13 7 33.5 -28t20.5 -56 q0 -7 -3 -8q-339 -137 -649 -137q-428 0 -676 217q-254 223 -254 624zM768 369q0 -187 127 -187q104 0 212 198q101 186 101 329q0 122 -184 122q-107 0 -179 -120q-77 -130 -77 -342z" />
<glyph unicode="A" horiz-adv-x="1499" d="M-10 19q0 25 70 55q72 31 135 143q232 417 294 533q161 301 254 520q25 58 91 82h3q17 0 33 -58q150 -551 320 -1112q28 -93 125 -125q34 -11 34 -30q0 -3 -1 -7q-12 -40 -41 -30q-75 15 -190 15q-89 0 -202 -9q-51 -4 -51 20q-2 27 37 43q111 45 111 87q0 13 -6 38 q-26 95 -80 285q-70 -4 -244 -4q-146 0 -242 8q-25 -50 -125 -240q-21 -41 -21 -73q0 -49 48 -72q82 -39 82 -53l-2 -8q-4 -28 -44 -28q-8 0 -18 1q-63 7 -126 7q-103 0 -205 -19q-13 -4 -21 -4q-3 0 -5 1q-13 5 -13 34zM483 551q99 -8 230 -8q84 0 190 4q-46 158 -141 479 q-5 17 -15 17q-11 0 -20 -17q-90 -176 -244 -475z" />
<glyph unicode="B" horiz-adv-x="1247" d="M53 13q0 25 47 44q56 23 75 42q27 27 34 85l115 938q1 11 1 20q0 77 -89 97q-50 11 -50 33v2q4 28 16 34q6 3 20 3q12 0 28 -2q27 -4 139 -4q62 0 145.5 2t110.5 2q193 0 301 -70q113 -71 113 -203q0 -220 -273 -321q-27 -10 0 -15q124 -18 200 -85q89 -77 89 -203 q0 -216 -156 -324q-139 -96 -384 -96q-27 0 -131 6t-156 6q-91 0 -154 -12q-16 -4 -25 -4q-6 0 -9 2q-7 3 -7 23zM375 164q-1 -5 -1 -11q0 -85 187 -85q318 0 318 319q0 283 -312 283q-77 0 -131 -11zM446 750h86q332 0 332 268q0 221 -254 221q-65 0 -87 -13 q-17 -11 -21 -42z" />
<glyph unicode="C" horiz-adv-x="1452" d="M113 526q0 346 249 582q245 231 592 231q163 0 275 -39q114 -39 114 -78q0 -63 -20 -249q-3 -30 -53 -33q-36 -2 -41 25q-32 152 -108 219q-79 69 -228 69q-242 0 -409 -196q-171 -201 -171 -506q0 -223 115 -356q119 -138 330 -138q302 0 440 338q14 34 40 34 q10 0 24 -3q41 -5 32 -41q-40 -177 -80 -262q-26 -57 -144 -101q-140 -53 -337 -53q-297 0 -458.5 147t-161.5 410z" />
<glyph unicode="D" horiz-adv-x="1563" d="M55 27q3 22 47 32q66 16 82.5 37.5t26.5 102.5l115 923q2 19 2 32q0 50 -86 69q-46 9 -55 16t-9 31t22 31q4 1 44 4q206 14 532 14q192 0 316 -41q79 -26 170 -88q76 -53 126 -145q60 -110 60 -242q0 -418 -249 -627q-224 -188 -628 -188q-30 0 -132.5 6t-166.5 6 q-79 0 -178 -8q-26 -2 -34 4q-6 5 -5 21v10zM382 203q0 -70 49 -95.5t179 -25.5q637 0 637 680q0 255 -133 366q-127 107 -391 107q-140 0 -184 -15q-35 -12 -39 -49l-115 -925q-3 -24 -3 -43z" />
<glyph unicode="E" horiz-adv-x="1204" d="M53 27q5 26 47 31q60 7 79.5 24t27.5 82l112 921q7 51 7 75q0 46 -29 65q-34 15 -69 29q-26 12 -17 46q8 20 42 20q12 0 28 -3q57 -10 307 -10q263 0 452 12q15 1 26 1q34 0 34 -9q0 -4 -2 -11q-27 -78 -45 -225q-4 -31 -33 -31q-26 0 -33 27q-17 71 -33 95 q-24 38 -82 48q-45 9 -323 9q-32 0 -41 -11q-5 -6 -8 -30l-54 -418q-2 -18 3 -21.5t24 -3.5q88 2 254 13q45 5 78 112q10 33 35 33q6 0 14 -2q30 -8 23 -31q-48 -152 -62 -354q-2 -24 -33 -29q-32 -4 -32 33q0 65 -5 82q-12 43 -57 49q-73 10 -235 10q-19 0 -19 -14 q-9 -82 -55 -436q-2 -17 -2 -29q0 -70 105 -86q24 -4 165 -4q232 0 318 174q19 40 49 27q31 -7 20 -37q-38 -107 -63 -240q-3 -16 -47 -16h-15q-147 8 -370 8q-255 0 -445 -10h-11q-17 0 -23 4q-8 5 -7 26v5z" />
<glyph unicode="F" horiz-adv-x="1098" d="M53 27q5 26 47 30q95 11 115 172l104 856q3 23 3 41q0 82 -86 125q-33 17 -25 49q8 20 42 20q12 0 28 -3q57 -10 301 -10q249 0 436 12q17 1 29 1q33 0 33 -8q0 -5 -3 -12q-23 -72 -45 -225q-8 -31 -33 -31q-23 0 -32 27q-18 72 -41 102q-26 34 -76 41q-54 9 -272 9 q-73 0 -78 -41l-56 -453q-2 -19 6 -21q5 -2 19 -1q84 1 246 12q33 4 46 20q14 20 34 92q8 33 36 33q6 0 13 -2q30 -6 22 -31q-33 -106 -61 -354q-3 -25 -35 -28q-26 -3 -29 30q-8 125 -75.5 133.5t-219.5 8.5q-16 0 -16 -13q-27 -193 -55 -450q-1 -8 -1 -15q0 -38 27 -53 q26 -15 117 -27q36 -4 36 -28q0 -7 -3 -15q-6 -27 -59 -27q-11 0 -25 1q-105 9 -195 9q-99 0 -178 -11q-9 -1 -16 -1q-12 1 -18 5q-7 7 -7 26v5z" />
<glyph unicode="G" horiz-adv-x="1559" d="M113 537q0 344 235 575t582 231q204 0 330 -43q103 -35 104 -75v-16q0 -74 -16 -210q-4 -31 -45 -34q-42 -4 -50 24q-40 148 -118 206q-82 60 -254 60q-256 0 -410 -182q-156 -186 -156 -504q0 -223 121 -360q127 -143 348 -143q131 0 222.5 44t103.5 115q5 32 25 181 q3 24 3 42q0 81 -108 113q-48 14 -48 34q0 3 1 5q7 26 17 32.5t47 2.5q120 -13 221 -13q92 0 168 11q28 4 35 -1q6 -5 6 -27v-7q-6 -34 -50 -41q-73 -11 -92.5 -21.5t-23.5 -43.5l-35 -269q-12 -83 -157 -162q-165 -90 -380 -90q-273 0 -447 154q-179 157 -179 412z" />
<glyph unicode="H" horiz-adv-x="1675" d="M55 27q3 26 47 30q93 10 105 107l119 960q1 7 1 14q0 77 -114 103q-18 4 -34.5 9.5t-14.5 25.5q3 27 21 33q9 4 44 2q118 -7 214 -7t169 7q29 2 37 -4t4 -31q-2 -19 -47 -29q-62 -13 -83 -33t-27 -75l-41 -338q-2 -14 -2 -24q0 -46 57 -46h661q38 0 49 9q15 13 21 65 l43 344q2 11 2 20q0 33 -26 48q-21 13 -91 28q-51 11 -51 35q3 27 14 34t50 3q67 -7 137 -7q38 0 78 2q81 4 162 9q29 -1 33 -7q3 -4 4 -17q0 -6 -1 -13q-4 -25 -47 -31q-84 -10 -96 -104l-123 -985q-1 -7 -1 -14q0 -38 29 -58q24 -17 95 -35q40 -9 37 -30q-4 -26 -11 -32 q-5 -4 -19 -4q-7 0 -17 1q-120 11 -243 11q-65 0 -130 -3q-33 -2 -41 2q-12 6 -10 33q6 32 53 39q80 11 90 90l49 393q2 15 3 25v5q0 42 -48 42h-671q-42 0 -52 -11t-16 -57l-51 -397v-6q0 -52 106 -84q47 -14 47 -36q0 -29 -17 -37q-7 -3 -42 -1q-65 3 -130 3 q-122 0 -245 -11q-10 -1 -17 -1q-15 0 -19 4t-4 17q0 6 1 15z" />
<glyph unicode="I" horiz-adv-x="762" d="M58 16q0 6 1 17q5 20 47 30q65 16 83 32q23 20 30 77l121 981q1 7 1 14q0 39 -30 58q-25 17 -100 30q-47 9 -43 29q5 27 13 34.5t34 4.5q88 -10 178 -10q107 0 219 14q13 2 23 2q34 0 34 -19q0 -6 -1 -16q-4 -25 -56 -41q-56 -17 -71 -28q-27 -20 -33 -66l-121 -973 q-1 -7 -1 -13q0 -77 126 -101q47 -9 47 -35q0 -31 -20 -38q-4 -2 -19 -2q-10 0 -24 1q-128 6 -227.5 6t-170.5 -6h-9q-30 0 -31 18z" />
<glyph unicode="J" horiz-adv-x="737" d="M-309 -296q0 21 26 65q36 59 68 59q17 0 51 -25q80 -57 162 -57q92 0 137 56q53 65 74 237l139 1124q2 13 2 22q0 31 -26 44q-22 12 -101 26q-41 8 -37 39q5 31 47 27q84 -8 165 -8q113 0 220 16q12 2 20 2q10 0 13 -3q6 -5 6 -34q0 -26 -49 -41q-55 -16 -72.5 -33.5 t-23.5 -66.5l-131 -1055q-28 -228 -171 -351q-129 -112 -314 -112q-123 0 -189 43q-16 11 -16 26z" />
<glyph unicode="K" horiz-adv-x="1399" d="M63 27q4 26 43 30q91 11 103 107l117 960q1 11 1 20q0 76 -85 97l-34 8q-14 7 -11 27q2 24 12.5 30.5t48.5 4.5q116 -7 210.5 -7t166.5 7q24 2 32.5 -4.5t6.5 -30.5q-2 -18 -47 -29q-79 -18 -98 -34q-22 -18 -29 -74l-54 -437q168 139 482 402q57 49 57 90q0 36 -45 55 q-29 13 -35.5 19.5t-1.5 25.5q6 22 15 26q4 2 12 2q11 0 31 -3q97 -13 188 -13q76 0 149 9q25 3 32 -2.5t7 -30.5q1 -22 -16 -31q-2 -1 -37 -12q-99 -31 -242 -145q-80 -65 -460 -377q156 -185 471 -541q77 -83 164 -108q43 -13 40 -33q-4 -36 -43 -35q-72 3 -137 3 q-138 0 -248 -13q-8 -2 -15 -2q-21 0 -21 21q0 22 45 42q31 14 31 55q0 31 -23 60q-137 171 -406 477l-59 -479v-7q0 -52 100 -83q45 -14 45 -36q0 -30 -16 -36q-7 -4 -41 -2q-56 3 -115 3q-120 0 -256 -11q-25 -2 -31 4q-5 5 -5 20q0 5 1 11z" />
<glyph unicode="L" horiz-adv-x="1135" d="M53 27q6 26 47 30q95 10 107 105l112 923q5 33 5 54q0 81 -84 112q-34 13 -29 45q6 22 16 26q11 3 49 -1q64 -8 141 -8q86 0 189 10q37 3 41 3q19 -3 19 -28q0 -24 -9.5 -32t-48.5 -17q-69 -16 -88.5 -36.5t-27.5 -86.5q-19 -144 -109 -895q-2 -20 -2 -35q0 -64 51 -87 t195 -23q132 0 197 36t118 138q15 28 24 32q7 3 27 -5q22 -6 22 -24q0 -6 -3 -13q-51 -140 -62 -240q-2 -17 -43 -17q-8 0 -18 1q-144 8 -357 8q-243 0 -438 -10q-7 -1 -13 -1q-16 1 -22 5q-6 5 -6 25v6z" />
<glyph unicode="M" horiz-adv-x="1880" d="M12 33q3 21 45 30q77 17 105 53q23 28 35 101l143 885q3 19 3 33q0 68 -118 114q-38 15 -38 41q0 3 1 6q5 27 45 21q90 -13 169 -13q50 0 96 5q42 5 56.5 -2t23.5 -35l282 -969q5 -16 11 -16q7 0 20 22q197 349 545 940q30 51 69 51q104 0 230 27q21 5 33 5q9 0 12 -3 q8 -5 8 -35q0 -27 -53 -41q-59 -14 -76 -26q-29 -20 -33 -68l-84 -973q-1 -10 -1 -20q0 -43 19 -63q20 -20 72 -31q50 -10 49 -36q0 -30 -19 -37q-8 -3 -44 -1q-125 5 -220.5 5t-162.5 -5q-26 -2 -34 5.5t-5 29.5q5 21 47 30q89 20 107 33q23 17 28 76l72 864q2 27 -11 27 q-10 0 -22 -19q-406 -675 -551 -976q-32 -69 -36 -75q-12 -18 -31 -24q-10 -3 -16 -3q-20 0 -27 59q-27 199 -291 1003q-8 23 -19 23q-13 0 -18 -31l-129 -791q-5 -30 -5 -52q0 -85 109 -105q50 -9 50 -35q0 -30 -22 -38q-7 -3 -44 -1q-108 4 -192.5 4t-145.5 -4 q-27 -2 -33 4q-4 4 -5 18q0 5 1 13z" />
<glyph unicode="N" horiz-adv-x="1632" d="M27 33q2 21 47 30q78 18 107 54q23 29 32 100l109 885q1 4 1 8q0 63 -112 139q-42 29 -37 47q5 27 43 21q77 -12 142 -12q38 0 71 4q5 1 10 1q41 0 70 -38q496 -645 686 -920q10 -14 17 -14q9 0 12 24l92 748q1 12 1 23q0 106 -112 127q-46 8 -43 28q6 38 40 38q4 0 9 -1 q69 -8 146 -8q95 0 203 12q18 2 28 2q27 0 27 -27v-8q-3 -25 -55 -41q-123 -36 -136 -139l-88 -719q-23 -195 -39 -366q-4 -53 -30 -60q-6 -1 -12 -1q-33 0 -52 48q-36 97 -309 467q-240 327 -449 580q-7 9 -16 4q-10 -4 -12 -22l-92 -818q-2 -15 -2 -29q0 -106 108 -128 q50 -10 47 -39q-8 -35 -57 -35h-6q-113 5 -200.5 5t-149.5 -5q-26 -2 -34 6q-5 5 -6 18q0 5 1 11z" />
<glyph unicode="O" d="M113 547q0 340 239 574q227 222 527 222q280 0 447 -153.5t167 -415.5q0 -342 -233 -576q-227 -227 -545 -227q-267 0 -432 153q-170 157 -170 423zM307 586q0 -237 130 -377.5t349 -140.5q226 0 371 191q141 187 141 470q0 229 -123 369q-130 147 -352 147 q-216 0 -363 -180q-153 -187 -153 -479z" />
<glyph unicode="P" horiz-adv-x="1161" d="M53 27q5 26 47 31q95 11 107 106l117 958q1 11 1 20q0 77 -89 97q-50 11 -50 33q0 28 16 37q6 4 18 3.5t30 -3.5q43 -9 129 -9q43 0 155 4.5t179 4.5q177 0 285 -85t108 -225q0 -221 -155 -337q-135 -102 -371 -115q-19 -1 -19 31q0 24 6.5 31t32.5 9q322 28 322 375 q0 134 -76 192q-71 54 -232 54q-68 0 -93 -25q-20 -21 -27 -84l-119 -966q-2 -18 -2 -28q0 -28 21 -39q18 -10 87 -23q47 -9 47 -35q0 -31 -17 -38q-7 -3 -42 -1q-56 3 -116 3q-121 0 -259 -11h-11q-17 0 -23 4q-8 5 -7 26v5z" />
<glyph unicode="Q" d="M113 547q0 340 239 574q227 222 527 222q280 0 447 -153.5t167 -415.5q0 -256 -137 -460q-131 -195 -346 -283q277 -305 688 -305q192 0 389 38q22 5 31 -22q1 -9 1 -16q0 -24 -16 -29q-216 -62 -456 -62q-527 0 -859 340q-49 -4 -73 -4q-267 0 -432 153 q-170 157 -170 423zM307 586q0 -237 130 -377.5t349 -140.5q226 0 371 191q141 187 141 470q0 229 -123 369q-130 147 -352 147q-216 0 -363 -180q-153 -187 -153 -479z" />
<glyph unicode="R" horiz-adv-x="1276" d="M53 27q5 25 47 30q58 8 79 27.5t28 79.5l117 958q1 11 1 20q0 77 -89 97q-50 11 -50 33q0 27 16 36q6 4 20 4q12 0 28 -3q37 -6 119 -6q27 0 134.5 3t198.5 3q177 0 283.5 -81.5t106.5 -221.5q0 -264 -277 -355q-52 -17 -84 -24q91 -236 211 -399q126 -171 238 -193 q24 -5 24 -30v-7q-2 -23 -49 -23q-163 0 -330 178q-159 169 -272 441q-42 -5 -127 -8l-51 -422q-2 -12 -2 -22q0 -32 22 -45t86 -23q47 -8 47 -35q0 -31 -17 -38q-7 -3 -42 -1q-56 3 -116 3q-121 0 -259 -11q-26 -2 -34 4q-8 5 -7 26v5zM434 666q200 6 303 51 q166 72 166 280q0 128 -63 183q-66 59 -224 59q-74 0 -97 -25q-17 -18 -25 -84z" />
<glyph unicode="S" horiz-adv-x="1128" d="M63 252v9q0 41 33 54q25 10 34 8q11 -4 22 -28q99 -234 327 -234q130 0 206 56q81 59 81 168q0 78 -46 138q-51 66 -206 175q-180 126 -240 198q-67 82 -67 187q0 162 124 260t318 98q164 0 252 -32q33 -13 49 -23q28 -17 31 -41q6 -42 6 -93t-6 -110q-4 -35 -39 -43 q-38 -3 -45 25q-30 126 -95.5 176.5t-199.5 50.5q-96 0 -162 -48q-73 -53 -73 -144q0 -80 43.5 -139t173.5 -148q196 -134 269 -224t73 -198q0 -178 -135 -282q-125 -97 -318 -97q-346 0 -381 113q-19 63 -29 168z" />
<glyph unicode="T" horiz-adv-x="1405" d="M92 993q46 114 70 305q3 20 44 20q7 0 15 -1q201 -14 455 -14q467 0 610 20q13 2 23 2q33 0 34 -20q4 -42 4 -88q0 -102 -20 -220q-3 -20 -4 -22q-5 -9 -23 -12q-34 -8 -40 28q-25 132 -76 177q-71 61 -264 61q-92 0 -97 -35l-121 -997q-2 -18 -2 -32q0 -45 29 -66 q24 -20 96 -38q51 -12 51 -28q0 -21 -8 -35q-6 -10 -35 -9q-10 0 -24 1q-130 12 -236 12q-97 0 -176 -10q-20 -2 -33 -2t-19 2q-11 6 -11 28q0 29 39 39q86 23 119 53q37 35 47 113l116 969q4 28 -30 34q-4 1 -56 1q-180 0 -273 -66q-68 -49 -136 -180q-16 -30 -37 -30 q-7 0 -14 3q-21 6 -21 22q0 7 4 15z" />
<glyph unicode="U" horiz-adv-x="1589" d="M166 1314q8 3 45 1q126 -7 224 -7t167 7q12 1 19 1q13 0 17 -4t3 -15q0 -6 -2 -19q-3 -21 -45 -31q-86 -19 -105 -33q-23 -18 -30 -75l-74 -600q-8 -68 -8 -125q0 -176 84 -260q88 -86 278 -86q394 0 459 505q30 238 66 535q2 15 2 29q0 86 -113 108q-47 9 -47 33v4 q4 30 17 35q5 2 27 2h17q133 -6 225 -5.5t142 5.5q9 1 15 1q14 0 18.5 -4.5t4.5 -18.5q0 -6 -1 -15q-2 -20 -47 -31q-82 -19 -105.5 -42t-32.5 -87q-26 -225 -65 -549q-79 -602 -627 -602q-489 0 -489 431q0 58 8 124l74 600q1 10 1 19q0 78 -93 96q-45 8 -45 34q0 32 16 39 z" />
<glyph unicode="V" horiz-adv-x="1579" d="M156 1317h6q59 -7 126 -7q127 0 281 25q16 3 26 4h9q14 0 18 -5q6 -7 3 -29q-3 -14 -9 -20q-10 -9 -45 -21q-103 -38 -103 -84q0 -15 7 -35q64 -174 136 -424l126 -442q7 -23 16 -23t21 23q164 305 449 823q15 29 15 52q0 59 -103 97q-38 14 -38 40q0 4 1 7q8 28 49 28 q9 0 20 -1q103 -13 194 -13q77 0 146 9q26 3 34 -2q6 -4 6 -17q0 -5 -1 -12q-3 -34 -67 -53q-53 -16 -129 -137q-269 -428 -605 -1077q-15 -42 -73 -58q-4 -1 -7 -2q-24 0 -32 60q-18 128 -129 482q-115 365 -223 630q-39 93 -121 112q-41 9 -41 27q0 43 37 43z" />
<glyph unicode="W" horiz-adv-x="2179" d="M153 1300h7q41 -4 89 -4q120 0 281 25q22 3 34 3q10 0 15 -2q9 -5 9 -30q0 -20 -56 -47q-70 -34 -70 -83q0 -14 5 -32q62 -260 201 -831q5 -20 15 -20t19 20q121 254 349 733q-7 25 -27 86q-24 72 -104 117q-42 18 -37 41q12 40 39 40q4 0 8 -1q93 -16 200 -16 q84 0 177 10q25 2 35 1q20 -2 16 -34q-3 -25 -53 -41q-104 -33 -104 -73q0 -12 5 -32q65 -259 205 -831q5 -20 15 -20t20 20q233 480 375 786q14 31 14 55q0 60 -100 97l-4 1q-39 15 -33 44q4 22 14 27q12 5 53 0q97 -13 190 -13q76 0 148 9q28 3 36 -3q6 -4 6 -17 q0 -5 -1 -11q-4 -34 -70 -54t-126 -137q-326 -635 -529 -1060q-20 -42 -76 -58q-3 -2 -7 -2q-25 0 -29 60q-15 199 -211 868q-183 -365 -422 -868q-20 -42 -76 -58q-3 -2 -7 -2q-25 0 -30 60q-17 225 -282 1095q-28 92 -121 115q-43 10 -43 27q-1 40 38 40z" />
<glyph unicode="X" horiz-adv-x="1516" d="M35 33q2 36 63 53q104 42 189 137q114 125 383 418q-106 196 -135 248q-80 143 -144 235q-56 82 -162 113q-44 8 -43 29q4 39 38 39h7q51 -5 109 -5q126 0 283 25q11 2 18 3h11q16 0 20 -4q6 -6 4 -30q-3 -23 -53 -43q-57 -22 -57 -60q0 -22 20 -56q67 -120 198 -367 q225 247 277 334q31 52 31 87q0 44 -48 62q-38 19 -32 47q5 28 42 28q9 0 19 -1q99 -14 189 -14q76 0 145 10q26 5 34 -1q7 -5 7 -25v-5q-7 -32 -72 -57q-101 -39 -184 -133q-192 -216 -365 -406q162 -310 303 -506q68 -93 160 -125q40 -9 37 -30q-5 -38 -34 -38q-4 0 -9 1 q-89 14 -191 14q-94 0 -200 -12q-34 -4 -44 2t-5 31q0 20 51 41q56 16 56 65q0 20 -11 39q-74 124 -227 391q-234 -254 -295 -346q-34 -51 -34 -86q0 -43 50 -63q40 -20 33 -47q-4 -28 -44 -28q-9 0 -20 1q-93 13 -184 13q-75 0 -149 -9q-24 -3 -32 2q-4 3 -5 13q0 6 2 16z " />
<glyph unicode="Y" horiz-adv-x="1495" d="M139 1317h8q61 -8 132 -8q128 0 288 26q23 4 35 4h4q18 -2 15 -34q0 -21 -54 -41q-90 -35 -90 -76q0 -18 15 -43q139 -235 264 -488q9 -18 15 -18t20 18q112 147 339 445q34 45 34 75q0 46 -77 74q-37 14 -37 39q0 4 1 8q7 28 47 28q9 0 20 -1q99 -13 189 -13q74 0 143 9 q26 3 34 -2q5 -4 5 -20v-9q-3 -34 -68 -53q-71 -22 -170 -137q-268 -314 -434 -549q-16 -126 -45 -354q-3 -28 -3 -44q0 -39 22 -57.5t86 -34.5q48 -11 48 -40q0 -4 -1 -9q-8 -23 -25 -25h-3q-8 0 -38 3q-99 9 -197 9q-87 0 -172 -7q-14 -3 -25 -3q-34 0 -36 27q-3 33 37 43 q82 22 109 53t36 113q11 93 35 273q-97 255 -358 637q-66 95 -146 112l-5 1q-36 8 -36 26q0 43 39 43z" />
<glyph unicode="Z" horiz-adv-x="1329" d="M25 6q-1 4 -1 7q0 24 27 55q520 599 918 1114q15 20 15 27q0 14 -81 14h-231q-184 0 -271 -57q-70 -45 -137 -179q-24 -39 -51 -26q-31 7 -20 36q54 146 71 306q3 19 45 19q8 0 17 -1q206 -14 475 -14q264 0 409 10q39 3 42 2q11 -2 14 -14q3 -19 -27 -54 q-502 -576 -899 -1085q-21 -27 -21 -42q0 -22 48 -26q124 -10 327 -10t280 48q65 40 124 179q16 38 49 29q19 -5 16 -35q-15 -175 -63 -307q-7 -19 -44 -19q-8 0 -18 1q-197 18 -456 18q-368 0 -492 -10q-12 -1 -21 -1q-37 0 -44 15z" />
<glyph unicode="[" horiz-adv-x="840" d="M58 -286q0 10 3 26q47 241 119 842q76 626 88 843q3 41 19 51t61 9q54 -2 231 3q190 6 255 13q27 3 36 -1.5t9 -24.5q-2 -34 -35 -37q-197 -18 -342 -43q-72 -13 -84 -88q-13 -81 -92 -723q-60 -484 -84 -725q-8 -76 59 -88q136 -25 334 -43q31 -3 24 -37q-6 -32 -51 -27 q-63 7 -252 13q-175 5 -229 4q-69 -3 -69 33z" />
<glyph unicode="\" horiz-adv-x="877" d="M125 1444q-7 25 41 45q45 18 51 -4l514 -1784q7 -23 -37 -43q-48 -22 -55 4z" />
<glyph unicode="]" horiz-adv-x="840" d="M-70 -309q3 34 33 37q201 18 342 43q72 12 84 87t92 726q61 493 84 723q8 75 -59 88q-132 24 -334 43q-28 2 -22 37q5 31 49 26q64 -7 253 -13q174 -5 228 -3q70 2 70 -35q0 -10 -2 -25q-52 -266 -121 -843q-72 -596 -86 -842q-3 -40 -22 -52q-15 -9 -60 -7 q-54 1 -230 -4q-189 -6 -256 -13q-27 -3 -35.5 1.5t-7.5 25.5z" />
<glyph unicode="^" horiz-adv-x="1143" d="M188 827q215 272 328 480q15 26 55 26q43 0 56 -24q73 -147 329 -484q12 -15 -6 -24q-42 -22 -61 -6q-191 161 -318 301q-119 -135 -321 -303q-20 -17 -55 8q-18 12 -7 26z" />
<glyph unicode="_" horiz-adv-x="823" d="M-98 -174h839v-121h-839v121z" />
<glyph unicode="`" horiz-adv-x="979" d="M348 1241q0 18 45.5 42t85.5 24q20 0 39 -27q10 -13 42 -129q35 -124 83 -205q7 -11 -14 -22q-33 -18 -47 -4q-118 118 -217 272q-17 25 -17 49z" />
<glyph unicode="a" horiz-adv-x="913" d="M23 176q0 240 186 434q171 176 340 176q52 0 110 -20q15 -5 35 18q33 37 55 37q11 0 25 -8t13 -22q-1 -13 -17 -60q-94 -272 -94 -534q0 -95 31 -95t106 91q3 1 5 1q9 0 20 -12.5t11 -22.5q0 -4 -1 -5q-118 -162 -219 -162q-90 0 -90 94q0 67 22 188q2 10 -5 11 q-8 1 -13 -9q-174 -294 -346 -294q-174 0 -174 194zM170 254q0 -141 104 -141q100 0 209 190q95 163 95 277q0 108 -111 108q-95 0 -193 -132q-104 -140 -104 -302z" />
<glyph unicode="b" horiz-adv-x="905" d="M41 94q0 18 8 47q58 209 125 678q27 179 62 418q2 15 2 26q0 42 -23 42q-34 0 -135 -27q-9 -2 -18.5 13.5t-9.5 28.5q0 7 3 9q197 98 264 98q84 0 84 -67q0 -8 -2 -17q-39 -276 -155 -866q-2 -8 6 -9q8 0 14 7q164 320 328 320q201 0 201 -258q0 -244 -176 -415 q-148 -145 -289 -145q-83 0 -160 23q-129 38 -129 94zM213 178q0 -96 158 -96q105 0 176 92q88 112 88 330q0 160 -111 160q-67 0 -178 -170q-133 -205 -133 -316z" />
<glyph unicode="c" horiz-adv-x="754" d="M37 270q0 232 136 381q122 135 280 135q225 0 225 -96q0 -28 -45 -80q-41 -47 -68 -47q-24 0 -59 55q-47 74 -94 74q-95 0 -157 -89q-67 -96 -67 -259q0 -122 51 -193q47 -65 119 -65q88 0 168 68q35 28 52 14q22 -20 22 -34q0 -11 -14 -25q-134 -132 -283 -132 q-266 0 -266 293z" />
<glyph unicode="d" horiz-adv-x="934" d="M31 231q0 231 143.5 396.5t286.5 165.5q78 0 155 -23q5 -1 13 49l63 418q3 19 3 32q0 36 -21 36q-44 0 -162 -29q-12 -3 -21 17t1 26q227 108 284 108q73 0 73 -69q0 -7 -1 -15q-50 -297 -148 -909q-24 -159 -24 -244q0 -96 31 -96q30 0 106 92q3 2 5 2q9 0 20 -13 t11 -24q0 -3 -1 -6q-122 -161 -219 -161q-90 0 -90 96q0 57 14 143q2 13 -4 14q-7 2 -14 -12q-54 -92 -128 -162q-94 -88 -176 -88q-94 0 -147 67t-53 189zM188 268q0 -162 111 -162q94 0 189 178q90 167 90 300q0 104 -162 104q-94 0 -158 -109q-70 -118 -70 -311z" />
<glyph unicode="e" horiz-adv-x="780" d="M41 289q0 225 131 370q124 138 297 138q213 0 213 -154q0 -107 -114 -181q-109 -71 -375 -145q4 -114 54 -174q44 -53 111 -53q88 0 181 64q34 23 53 14q21 -14 21 -35q0 -16 -15 -29q-149 -116 -293 -116q-264 0 -264 301zM195 381q190 61 258.5 108.5t68.5 116.5 q0 48 -29.5 78.5t-76.5 30.5q-82 0 -145 -88q-68 -95 -76 -246z" />
<glyph unicode="f" horiz-adv-x="672" d="M-166 -330q10 0 55 -22q26 -19 58 -19q133 0 170 346l71 670q1 5 1 9q0 38 -39 40l-66 4q-21 2 -20 14q1 4 4 13q13 39 112 39h21q28 256 138 433q139 224 366 224h91q66 -8 66 -43v-2q-2 -41 -22.5 -89t-38.5 -48q-12 0 -80 27q-48 18 -105 18q-136 0 -197 -139 q-44 -101 -73 -361l-2 -18l244 2q21 0 23 -16q1 -5 -5 -35q-13 -41 -82 -41h-16l-174 10l-68 -623q-27 -254 -135 -406.5t-250 -152.5q-112 0 -112 59q0 107 65 107z" />
<glyph unicode="g" horiz-adv-x="903" d="M-88 -281q0 154 258 281q-55 44 -55 92q0 61 141 131q-182 75 -182 240q0 146 100 243q95 93 227 93q92 0 183 -47q45 -29 119 -29h10l78 2q39 1 39 -24q0 -11 -5 -31q-12 -50 -50 -50q-17 0 -56 5q-31 4 -37 -27q0 -2 -2 -57q-7 -241 -254 -316q-141 -43 -141 -86 q0 -31 170 -94q148 -55 205 -97q69 -51 69 -126q0 -146 -136 -234q-127 -82 -314 -82q-164 0 -262 54q-105 57 -105 159zM80 -266q0 -148 235 -148q128 0 212.5 50t84.5 120q0 67 -235 156q-60 23 -131 51q-166 -94 -166 -229zM225 481q0 -184 144 -184q174 0 174 254 q0 174 -156 174q-70 0 -116 -67.5t-46 -176.5z" />
<glyph unicode="h" horiz-adv-x="944" d="M38 1317q0 10 5 12q205 98 264 98q86 0 86 -67q0 -8 -2 -17q-47 -289 -133 -792q-1 -8 7 -10q9 -2 14 8q58 93 136 162q101 88 189 88q78 0 126 -44q52 -48 52 -134q0 -35 -59 -285q-45 -190 -45 -207q0 -29 33 -29q27 0 108 90q3 2 5 2q10 0 20.5 -11.5t10.5 -22.5 q0 -5 -3 -8q-121 -160 -219 -160q-101 0 -101 82q0 30 54 264q45 198 45 229q0 103 -101 103q-78 0 -163 -135q-90 -142 -123 -340l-25 -148q-7 -43 -94 -49q-29 -2 -42.5 6t-10.5 27q94 668 149 1208q1 14 1 25q0 43 -21 43q-41 0 -138 -27q-9 -3 -17 11t-8 28z" />
<glyph unicode="i" horiz-adv-x="559" d="M51 622q0 5 2 7q131 162 226 162q98 0 98 -82q0 -48 -60 -267q-75 -279 -75 -313q0 -29 34 -29q29 0 107 90q2 3 5 3q9 0 20.5 -13t11.5 -23q0 -5 -2 -7q-129 -160 -225 -160q-99 0 -99 78q0 34 62 268q75 288 75 315q0 29 -36 29q-30 0 -105 -92q-2 -3 -6 -3 q-10 0 -21.5 13t-11.5 24zM223 1133q0 44 40 82t83 38q109 0 109 -96q0 -46 -39.5 -85.5t-83.5 -39.5q-48 0 -78.5 28t-30.5 73z" />
<glyph unicode="j" horiz-adv-x="524" d="M-76 -514q-5 9 -5 18q0 15 15 29q98 87 132 148q43 73 59 204l74 594q12 99 12 150t-27 51q-28 0 -104 -92q-2 -2 -5 -3q-10 0 -22.5 14t-12.5 25q0 3 1 5q126 162 227 162q94 0 94 -97q0 -26 -14 -143l-74 -602q-25 -206 -105 -309q-58 -74 -212 -158q-10 -6 -17 -6 q-10 0 -16 10zM203 1133q0 44 36 82t78 38q113 0 113 -96q0 -47 -35.5 -86t-79.5 -39q-48 0 -80 28t-32 73z" />
<glyph unicode="k" horiz-adv-x="940" d="M38 1318q0 9 5 11q209 98 266 98q86 0 86 -67q0 -8 -2 -17q-47 -289 -133 -792q-1 -8 7 -8q9 -1 14 6q153 250 321 250q84 0 134 -45q48 -43 48 -115v-6q-3 -174 -223 -289q-24 -12 -10 -43q89 -197 141 -197q45 0 131 86q2 2 5 2q8 0 18 -12t10 -23q0 -4 -2 -7 q-120 -160 -219 -160q-70 0 -115 60.5t-119 254.5q-6 12 -6 21q0 21 27 34q221 106 221 226q0 90 -96 90q-92 0 -177 -130q-88 -136 -124 -353l-25 -148q-7 -43 -94 -49q-29 -2 -43.5 6t-11.5 27q101 719 151 1208q1 14 1 25q0 43 -21 43q-41 0 -137 -27q-10 -3 -19 11.5 t-9 28.5z" />
<glyph unicode="l" horiz-adv-x="518" d="M70 63q0 50 43 273q75 389 157 901q3 20 3 34q0 34 -19 34q-25 0 -139 -29q-23 -6 -23 38q0 12 6 15q213 98 269 98q73 0 73 -67q0 -8 -2 -17q-108 -632 -180 -1007q-39 -202 -39 -209q0 -27 37 -27q32 0 106 90q3 2 7 2q10 0 20.5 -12t10.5 -23q0 -5 -3 -7 q-132 -160 -229 -160q-98 0 -98 73z" />
<glyph unicode="m" horiz-adv-x="1411" d="M1 623q0 4 1 6q122 162 219 162q92 0 92 -97q0 -55 -16 -143q-2 -8 7 -10t13 8q151 250 312 250t164 -203q135 203 284 203q168 0 168 -178q0 -61 -53 -285q-39 -164 -39 -207q0 -29 33 -29q30 0 104 90q3 2 6 2q9 0 20.5 -12t11.5 -22q0 -5 -3 -8q-117 -160 -217 -160 t-100 82q0 27 45 241.5t45 251.5q0 103 -99 103q-78 0 -152 -125q-77 -128 -116 -334l-33 -172q-8 -26 -42 -36q-18 -5 -48 -7q-33 -3 -44.5 7t-6.5 32q92 429 92 526q0 109 -94 109q-76 0 -161 -135q-89 -140 -128 -340l-28 -148q-9 -44 -86 -49q-31 -2 -43 6t-9 27 q25 138 49 276q27 164 27 279q0 96 -31 96q-33 0 -106 -92q-2 -2 -6 -2q-10 0 -21 13t-11 24z" />
<glyph unicode="n" horiz-adv-x="961" d="M-3 623q0 4 1 6q122 162 219 162q92 0 92 -97q0 -55 -16 -143q-2 -8 7 -10t13 8q151 250 312 250q170 0 170 -178q0 -42 -56 -285q-39 -171 -39 -207q0 -29 35 -29q25 0 105 90q2 2 4 2q9 0 20 -12.5t11 -22.5q0 -4 -3 -7q-119 -160 -217 -160q-102 0 -102 82 q0 38 49 264q43 197 43 229q0 103 -94 103q-73 0 -159 -135q-91 -143 -130 -340l-29 -148q-8 -44 -86 -49q-30 -2 -42 6t-9 27q25 138 49 276q27 164 27 279q0 96 -31 96q-33 0 -106 -92q-3 -2 -6 -2q-10 0 -21 13t-11 24z" />
<glyph unicode="o" horiz-adv-x="846" d="M43 315q0 212 130 352q121 130 282 130q139 0 213 -85q71 -82 71 -231q0 -212 -124 -356q-120 -137 -283 -137q-289 0 -289 327zM205 354q0 -278 170 -278q93 0 148 95t55 255q0 281 -162 281q-95 0 -153 -95t-58 -258z" />
<glyph unicode="p" horiz-adv-x="909" d="M2 -487q0 8 15 59q15 55 18 70l133 856q-27 -17 -119 -72q-26 -16 -37 12q-11 31 13 47q18 13 74 51.5t85 59.5q25 119 45 184q41 132 82 152q33 16 45 16q17 0 17 -29q0 -12 -2 -30q-7 -46 -29 -193q174 103 272 103q197 0 197 -256q0 -236 -139 -396 q-145 -165 -289 -165q-66 0 -156 12q-17 -111 -53 -326q-3 -16 -3 -26q0 -28 22 -40t88 -22q35 -5 41 -8q20 -9 14 -35q-8 -33 -37 -33q-129 0 -246 -14q-9 -1 -16 -1q-35 0 -35 24zM254 139q110 -49 201 -49q72 0 129 101q67 118 67 311q0 166 -106 166q-73 0 -219 -78 q-24 -145 -72 -451z" />
<glyph unicode="q" horiz-adv-x="864" d="M31 240q0 228 143.5 393.5t286.5 165.5q93 0 155 -23q32 -11 52 -11q17 0 24 9q54 58 68 58q8 0 22 -9q11 -8 11 -17q0 -13 -25 -85t-78 -418l-96 -635q-2 -13 -2 -23q0 -48 108 -65q35 -5 42 -9q18 -9 14 -34q-6 -33 -37 -33q-270 0 -373 -14q-6 -1 -11 -1q-23 0 -32 15 q-10 26 27 41q62 20 86 44q28 26 39 87q17 95 98 553q2 9 -6 10q-8 0 -12 -8q-156 -249 -304 -249q-94 0 -147 67.5t-53 190.5zM188 274q0 -161 111 -161q94 0 189 178q90 168 90 299q0 104 -162 104q-94 0 -158 -108q-70 -117 -70 -312z" />
<glyph unicode="r" horiz-adv-x="770" d="M6 621q0 5 2 8q122 162 225 162q51 0 68.5 -20.5t17.5 -72.5q0 -36 -20 -147q-2 -8 6 -10t14 8q59 95 134 162q98 88 186 88q75 0 75 -42q0 -17 -9 -48q-38 -123 -76 -123q-14 0 -64.5 22.5t-75.5 22.5q-49 0 -120 -122q-79 -135 -117 -316l-31 -148q-9 -44 -88 -49h-11 q-21 0 -31 6q-13 8 -9 27q31 145 63 289q35 180 35 294q0 68 -28 68q-32 0 -111 -92q-2 -2 -6 -2q-9 0 -19 12t-10 23z" />
<glyph unicode="s" horiz-adv-x="731" d="M29 98q0 117 43 117q46 0 78 -55q56 -99 163 -99q127 0 127 101q0 47 -24 78.5t-101 83.5q-114 77 -154 124.5t-40 108.5q0 103 84.5 172.5t210.5 69.5q230 0 230 -80q0 -5 -1 -10q-12 -77 -20 -96q-9 -23 -31 -23q-37 0 -68 47q-54 84 -149 84q-55 0 -89 -29 q-30 -27 -30 -63q0 -47 37 -84q15 -15 76 -58q133 -93 171 -135q46 -51 46 -119q0 -111 -89 -180t-233 -69q-237 0 -237 114z" />
<glyph unicode="t" horiz-adv-x="629" d="M70 725q6 39 110 39h8q21 88 21 115q6 41 36 82t60 53q28 11 48 11q4 0 8 -1q21 -3 18 -20q-12 -80 -45 -238l188 2q26 0 26 -19q0 -9 -3 -32q-6 -42 -72 -42q-10 0 -20 1l-131 10q-18 -106 -46 -244q-47 -233 -47 -301q0 -51 47 -51q71 0 181 103q1 1 2 1 q7 0 19.5 -15.5t12.5 -25.5q0 -4 -2 -6q-146 -157 -284 -157q-127 0 -127 112q0 34 35 234q17 101 61 326q6 33 -33 34l-55 2q-17 1 -17 18q0 4 1 9z" />
<glyph unicode="u" horiz-adv-x="973" d="M16 621q0 5 2 8q125 162 220 162q100 0 100 -82q0 -37 -49 -263q-43 -197 -43 -229q0 -102 96 -102q73 0 160 134q94 145 129 341l28 160q8 42 86 49q11 1 20 1q33 0 35 -12q1 -7 -1 -22q-80 -441 -80 -567q0 -95 33 -95q29 0 108 91q2 1 5 2q8 0 19 -13t11 -23 q-1 -3 -2 -5q-121 -162 -217 -162q-92 0 -92 94q0 47 14 143q1 10 -6 11q-8 2 -14 -9q-150 -249 -312 -249q-75 0 -120 44q-48 48 -48 134q0 60 54 284q38 164 38 205q0 29 -32 29q-28 0 -105 -92q-2 -2 -5 -2q-9 0 -20.5 12.5t-11.5 22.5z" />
<glyph unicode="v" horiz-adv-x="977" d="M29 709q0 53 84 61q162 16 327 16q47 0 47 -20q0 -14 -14 -39q-160 -283 -160 -451q0 -161 152 -161q119 0 216 152q93 146 93 304q0 15 -71.5 46t-71.5 79q0 99 117 99q118 0 118 -129q0 -257 -137 -462q-143 -214 -338 -214q-108 0 -171.5 55.5t-63.5 155.5 q0 154 198 446q5 7 3 11t-7 4q-223 -7 -223 -41q0 -10 3 -39.5t3 -32.5q0 -7 -18 -8q-19 -1 -25 10q-61 92 -61 158z" />
<glyph unicode="w" horiz-adv-x="1440" d="M35 709q0 52 86 61q162 16 330 16q44 0 44 -20q0 -13 -16 -39q-184 -297 -184 -471q0 -141 121 -141q90 0 160.5 99.5t107.5 272.5l53 250q3 12 7 21q15 33 73 33q70 0 70 -29q0 -10 -4 -33l-39 -186q-33 -157 -33 -264q0 -164 139 -164q111 0 198 141.5t87 314.5 q0 15 -68.5 45t-68.5 78q0 101 121 101q110 0 110 -123q0 -285 -137 -487q-133 -195 -305 -195q-92 0 -146.5 61.5t-54.5 167.5q0 39 8 82q-121 -311 -342 -311q-219 0 -219 196q0 157 221 461q6 8 4 11q-1 4 -6 4q-103 -4 -117 -5q-105 -9 -108 -36v-72q0 -7 -18 -8t-25 10 q-49 98 -49 158z" />
<glyph unicode="x" horiz-adv-x="918" d="M10 76q0 35 20.5 64.5t45.5 29.5q23 0 73 -15.5t52 -15.5q37 0 159 209q-73 219 -101 276q-21 44 -44 44q-28 0 -88 -90q-2 -3 -6 -3q-9 0 -22.5 14t-13.5 23q0 3 1 4q88 162 184 162q79 0 111 -82q34 -85 72 -196q107 177 168 233q53 49 122 49q95 0 95 -86 q0 -36 -21 -65t-47 -29q-22 0 -71.5 15.5t-51.5 15.5q-23 0 -48 -32q-32 -39 -120 -183q74 -211 99 -264.5t47 -53.5q35 0 88 90q2 2 5 2q10 0 24.5 -14t14.5 -24q0 -3 -1 -4q-92 -160 -187 -160q-78 0 -108 82q-22 52 -74 194q-94 -157 -156 -216.5t-127 -59.5 q-94 0 -94 86z" />
<glyph unicode="y" horiz-adv-x="963" d="M-28 -366q4 0 8 -1q79 -10 114 -10q116 0 180 64q58 57 73 99q11 33 11 120q0 213 -55 479q-59 283 -127 283q-64 0 -125 -80q-2 -3 -7 -3q-10 0 -23 10.5t-13 21.5q0 5 2 8q50 85 94 121q54 45 132 45q83 0 128 -70q41 -64 76 -234q50 -239 60 -507q164 259 243 557 q6 21 6 38q0 62 -73 62q-29 0 -72 -2q-21 -1 -29 35q-7 36 7 47q124 74 174 74q103 0 103 -107q0 -41 -15 -96q-93 -326 -258 -605q-171 -287 -379 -456q-71 -58 -105 -58q-3 0 -6 1q-75 12 -130 39q-52 25 -52 48q0 77 58 77z" />
<glyph unicode="z" horiz-adv-x="780" d="M-21 26q0 4 3 7q333 373 501 555q19 20 19 24q-1 3 -10 2q-22 -2 -80 -2q-23 0 -89 9.5t-90 9.5q-51 0 -75.5 -16t-55.5 -64q-14 -23 -39 -8q-21 7 -10 30q19 39 33 80q25 77 44 96q25 25 95 25q46 0 156.5 -19.5t165.5 -19.5q75 0 133 39q3 2 5 2q11 0 24.5 -14 t13.5 -25q0 -4 -2 -6q-220 -244 -504 -557q-19 -20 -19 -23q2 -3 11 -1q45 4 76 4q23 0 97 -9.5t99 -9.5q81 0 140 80q14 20 38 8q26 -7 13 -30q-22 -40 -35 -80q-40 -121 -152 -121q-45 0 -160 19.5t-169 19.5q-73 0 -140 -39q-2 -2 -5 -2q-10 0 -21 13t-11 23z" />
<glyph unicode="{" horiz-adv-x="903" d="M90 573q3 31 23 33q293 27 293 234q0 49 -15.5 147t-15.5 148q0 303 518 364q44 5 49 -22q8 -41 -27 -47q-214 -39 -293 -99q-71 -54 -71 -157q0 -35 18 -158q13 -82 13 -146q0 -218 -240 -297q178 -64 178 -202q0 -74 -57 -215q-62 -151 -62 -205q0 -79 60 -128 q67 -55 246 -108q27 -8 14 -49q-10 -29 -57 -18q-431 100 -431 338q0 77 68 225q55 121 55 172q0 134 -252 158q-17 1 -14 32z" />
<glyph unicode="|" horiz-adv-x="545" d="M223 -330v1882q3 25 51 25q20 0 32 -2q16 -4 16 -23v-1882q0 -24 -50 -24q-49 0 -49 24z" />
<glyph unicode="}" horiz-adv-x="903" d="M-41 -330q-8 41 27 47q214 39 293 99q71 54 71 157q0 35 -18 158q-13 82 -13 145q0 219 240 297q-178 65 -178 203q0 74 57 215q62 151 62 205q0 79 -60 128q-67 55 -245 108q-28 8 -15 49q10 29 58 18q430 -100 430 -338q0 -77 -68 -225q-55 -121 -55 -172 q0 -134 252 -158q17 -1 14 -33q-3 -31 -23 -32q-292 -27 -292 -234q0 -49 15 -147t15 -148q0 -303 -518 -364q-43 -5 -49 22z" />
<glyph unicode="~" horiz-adv-x="979" d="M125 465q64 91 104 137q54 62 105 62q28 0 148 -36t130 -36q29 0 54 20q55 46 96 82q12 11 43 -16q26 -17 12 -31q-79 -106 -106 -137q-52 -59 -105 -59q-28 0 -147.5 34.5t-130.5 34.5q-26 0 -54 -18l-94 -82q-13 -12 -45 14q-24 20 -10 31z" />
<glyph unicode="&#xa1;" horiz-adv-x="547" d="M102 29q0 36 17 94q83 295 127 653q13 108 76 139q18 10 27 4q8 -7 5 -28q-41 -323 -41 -774q0 -62 -18 -84q-24 -27 -107 -45q-26 -6 -43 -6q-43 0 -43 47zM246 1202q0 57 34.5 96t81.5 39q105 0 105 -116q0 -55 -36.5 -92t-86.5 -37q-98 0 -98 110z" />
<glyph unicode="&#xa2;" horiz-adv-x="831" d="M31 289q0 206 121 350q113 136 288 170q11 51 29 162q4 24 35 14q39 -19 33 -61q-2 -11 -21 -105h21q95 0 159 -38t64 -91q0 -100 -76 -100q-64 0 -115 76q-33 49 -69 59l-119 -637q14 -2 43 -2q97 0 221 82q13 8 27 8q12 0 12 -26q0 -35 -101 -92q-111 -62 -221 -66 l-36 -205q-3 -14 -16 -11q-58 14 -48 68q7 37 29 152q-119 14 -188 87q-72 78 -72 206zM190 371q0 -200 121 -260q47 242 115 618q-106 -15 -172 -119q-64 -100 -64 -239z" />
<glyph unicode="&#xa3;" horiz-adv-x="858" d="M-17 41q0 8 5 10q120 58 166 142q35 64 39 176h-111q-8 0 -10 7q-2 10 4 36q10 47 28 47h80q-14 62 -14 100q0 110 87 182q94 78 253 78q238 0 238 -102q0 -46 -25.5 -78.5t-67.5 -32.5q-60 0 -102 65.5t-102 65.5q-123 0 -123 -159q0 -62 14 -119h186q11 0 13 -9 q3 -9 -4 -36q-12 -45 -27 -45h-164q-2 -137 -184 -254q80 35 168 35q38 0 103 -10.5t95 -10.5q59 0 88.5 15.5t65.5 66.5q5 7 34 0q30 -8 23 -18q-34 -60 -80 -154q-24 -51 -124 -51q-50 0 -158 25.5t-148 25.5q-94 0 -217 -47q-8 -3 -18.5 16t-10.5 33z" />
<glyph unicode="&#xa4;" horiz-adv-x="1083" d="M111 762q13 13 37 13q26 1 42 -15l119 -119q84 68 197 68q109 0 190 -62l138 137q13 11 24 0q14 -13 14 -37q0 -26 -16 -42l-111 -111q54 -72 54 -176q0 -118 -62 -205l146 -145q12 -13 -6 -31q-15 -14 -31 -14q-20 0 -43 22l-117 115q-78 -62 -192 -62q-104 0 -183 60 l-145 -146q-15 -12 -33 6q-14 14 -14 31q0 21 22 43l117 117q-59 79 -59 182q0 118 61 199l-147 147q-14 14 -2 25zM272 391q0 -99 61.5 -163t160.5 -64q110 0 172 73q59 69 59 181q0 100 -60 162.5t-159 62.5q-102 0 -168 -68t-66 -184z" />
<glyph unicode="&#xa5;" horiz-adv-x="999" d="M31 764q5 41 47 37q106 -11 266 10q18 4 28 6q18 2 23 -5q4 -6 0 -28q-4 -24 -51 -41q-43 -14 -43 -32q0 -7 6 -17q83 -130 154 -264q11 -20 24 -4q29 34 207 244q18 20 18 33q0 19 -52 34q-39 12 -29 41q11 34 63 27q103 -13 217 -2q27 2 35 -1.5t7 -18.5q0 -5 -1 -11 q-5 -34 -57 -47q-39 -10 -100 -74q-153 -158 -261 -289h261q12 0 12 -10q-4 -21 -25 -46t-43 -25h-235l-10 -66q-5 -31 -5 -51q0 -68 76 -86q51 -12 51 -28q0 -6 -6 -19q-7 -28 -26 -32q-8 -2 -47 1q-125 9 -275 -4q-25 -2 -34 -1q-21 2 -17 36q5 24 59 41q69 21 82 110 l15 99h-287q-14 0 -10 22q10 59 61 59h213q-52 116 -192 308q-27 36 -83 59q-42 17 -36 35z" />
<glyph unicode="&#xa6;" horiz-adv-x="545" d="M186 -330v779q3 24 52 24q19 0 31 -2q16 -4 16 -22v-779q0 -24 -49 -24q-50 0 -50 24zM186 633v919q3 25 52 25q19 0 31 -2q16 -4 16 -23v-919q0 -25 -49 -25q-50 0 -50 25z" />
<glyph unicode="&#xa7;" horiz-adv-x="834" d="M8 -236q0 97 88 97q67 0 93 -81t120 -81q64 0 101 36q34 33 34 83q0 46 -44 80q-41 31 -156 77q-125 51 -177.5 100.5t-52.5 119.5q0 168 193 239q-72 62 -72 135q0 117 81 183.5t228 66.5q125 0 195 -39q66 -36 66 -94q0 -92 -91 -92q-67 0 -91.5 81t-123.5 81 q-55 0 -95 -33.5t-40 -79.5q0 -44 34 -74q42 -37 168.5 -87.5t179 -101t52.5 -124.5q0 -159 -196 -236q73 -54 73 -143q0 -107 -80 -173q-83 -69 -225 -69q-133 0 -204 43q-58 36 -58 86zM154 256q0 -41 39.5 -73.5t146.5 -78.5q34 -14 98 -43q119 50 119 138q0 43 -39 76 t-145 77q-35 15 -101 43q-118 -50 -118 -139z" />
<glyph unicode="&#xa8;" horiz-adv-x="979" d="M199 1040q0 52 36 90.5t82 38.5q89 0 89 -98q0 -54 -34.5 -94.5t-80.5 -40.5q-92 0 -92 104zM561 1040q0 52 36 90.5t83 38.5q51 0 69.5 -21.5t18.5 -76.5q0 -54 -34.5 -94.5t-80.5 -40.5q-92 0 -92 104z" />
<glyph unicode="&#xa9;" horiz-adv-x="1624" d="M115 655q0 283 202 485.5t486 202.5q282 0 485 -202.5t203 -485.5t-202.5 -484.5t-485.5 -201.5q-285 0 -486.5 201t-201.5 485zM184 655q0 -260 180 -442t439 -182q258 0 438 182.5t180 441.5t-180.5 443t-437.5 184q-259 0 -439 -183.5t-180 -443.5zM401 653 q0 171 124 284q119 110 288 110q122 0 201 -27q76 -26 80 -55q4 -37 4 -140q0 -25 -37 -26q-30 -2 -37 20q-28 90 -74.5 125t-138.5 35q-117 0 -188 -79q-76 -84 -76 -234q0 -148 80 -237t209 -89q147 0 204 147q10 35 52 25q28 -7 28 -35q-5 -43 -24 -123q-11 -29 -88 -54 q-84 -28 -191 -28q-178 0 -295 106q-121 107 -121 275z" />
<glyph unicode="&#xaa;" horiz-adv-x="770" d="M18 479q20 75 64 72q144 -9 532 2q36 1 46 -5t4 -24q-10 -64 -62 -63q-375 6 -510 -8q-37 -4 -54 -2q-23 3 -20 28zM70 842q0 192 149 347q137 142 273 142q30 0 88 -16q12 -5 28 14q33 39 64 23q15 -11 -4 -66q-76 -220 -76 -428q0 -76 24 -76q28 0 86 74q2 1 5 1 q8 0 18 -13.5t6 -20.5q-100 -129 -176 -129q-72 0 -72 76q0 59 19 152q0 20 -17 0q-139 -236 -276 -236q-139 0 -139 156zM188 905q0 -114 84 -114q80 0 165 149q77 136 77 225q0 86 -88 86q-77 0 -155 -105q-83 -112 -83 -241z" />
<glyph unicode="&#xab;" horiz-adv-x="1090" d="M56 379q0 15 26 35l467 358q28 22 31 4q5 -37 -29 -74l-303 -323l215 -328q26 -40 8 -67q-10 -16 -31 4l-366 360q-18 18 -18 31zM486 379q0 15 26 35l467 358q28 22 31 4q5 -37 -29 -74l-303 -323l215 -328q26 -40 8 -67q-10 -16 -31 4l-366 360q-18 18 -18 31z" />
<glyph unicode="&#xac;" horiz-adv-x="1083" d="M59 451q0 45 58 45h717q34 0 34 -33v-309q0 -50 -80 -50q-45 0 -45 21v299h-665q-19 0 -19 27z" />
<glyph unicode="&#xad;" horiz-adv-x="690" d="M84 473q0 112 51 119q56 7 383 67q37 7 45 6q19 -4 19 -32q0 -99 -60 -109q-177 -27 -344 -75q-46 -14 -65 -14q-29 0 -29 38z" />
<glyph unicode="&#xae;" horiz-adv-x="1180" d="M109 852q0 198 140.5 339.5t340.5 141.5q198 0 339.5 -141.5t141.5 -339.5q0 -199 -141 -339t-340 -140q-200 0 -340.5 139.5t-140.5 339.5zM162 852q0 -177 125.5 -302.5t302.5 -125.5q175 0 301.5 126t126.5 302t-126.5 302t-301.5 126q-177 0 -302.5 -125.5 t-125.5 -302.5zM371 1102q0 27 32 22h187q184 0 184 -131q0 -107 -121 -143q90 -203 176 -215q19 -6 21 -21q0 -18 -25 -18q-143 0 -262 240q-28 -5 -41 -7v-153q0 -22 41 -27q29 -7 29 -22q0 -21 -31 -21q-98 2 -158 -4q-22 -2 -22 21q0 18 20 20q33 0 33 33v368 q0 33 -37 39q-26 5 -26 19zM522 872q158 15 158 111q0 102 -117 102q-41 0 -41 -34v-179z" />
<glyph unicode="&#xaf;" horiz-adv-x="979" d="M178 1049q0 46 19 51q175 41 442 41q49 0 125 -4q24 -2 24 -41q0 -48 -18 -52q-183 -38 -442 -38q-44 0 -125 4q-25 1 -25 39z" />
<glyph unicode="&#xb0;" horiz-adv-x="815" d="M125 1044q0 119 84 203t203 84q118 0 198 -80t80 -198q0 -119 -84 -204t-203 -85q-118 0 -198 81t-80 199zM236 1053q0 -80 51.5 -135.5t124.5 -55.5t120.5 51.5t47.5 130.5q0 80 -51.5 134.5t-125.5 54.5q-72 0 -119.5 -50.5t-47.5 -129.5z" />
<glyph unicode="&#xb1;" horiz-adv-x="1083" d="M111 27q0 45 57 45h702q19 0 19 -17q0 -19 -18 -37t-42 -18h-700q-18 0 -18 27zM111 532q0 46 57 46h268v274q0 49 96 49q29 0 29 -14v-309h309q19 0 19 -17q0 -19 -18 -37t-42 -18h-268v-270q0 -50 -80 -50q-45 0 -45 21v299h-307q-18 0 -18 26z" />
<glyph unicode="&#xb2;" horiz-adv-x="846" d="M24 512q0 19 11 27q357 264 445 349q106 101 106 197q0 131 -148 131q-105 0 -225 -69q-30 -17 -47 10q-17 26 18 53q157 121 318 121q262 0 262 -209q0 -120 -123 -233q-80 -74 -387 -279q-12 -12 -2 -12q112 -10 158 -10q124 0 174 13q40 11 77 46q29 27 52 23 q43 -17 20 -43q-38 -55 -84 -152q-16 -33 -57 -22q-110 28 -543 28q-25 0 -25 31z" />
<glyph unicode="&#xb3;" horiz-adv-x="766" d="M16 484q-2 21 14 39q11 12 38 9q73 -6 106 -6q142 0 224.5 60t82.5 159q0 142 -168 142h-41q-23 0 -30 24q-9 28 28 39q140 43 195 87q49 39 49 95q0 107 -113 107q-99 0 -186 -41q-29 -14 -47 12q-15 26 22 45q141 72 263 72q233 0 233 -160q0 -144 -213 -215 q180 -42 180 -186q0 -147 -144 -231q-135 -78 -351 -78q-60 0 -117 8q-23 3 -25 19z" />
<glyph unicode="&#xb4;" horiz-adv-x="979" d="M274 952q71 79 138 200q64 114 75 126q35 29 54 29q40 0 80 -25q36 -24 36 -41q0 -25 -28 -55q-134 -141 -293 -264q-23 -18 -53 2q-22 14 -9 28z" />
<glyph unicode="&#xb6;" horiz-adv-x="1038" d="M49 -254q0 47 50 90t96 43q25 0 81 -88t97 -88q61 0 124 123q60 116 60 207q0 54 -47 73q-227 96 -321 174q-121 100 -121 238q0 303 376 303q59 0 179 -6t149 -6q84 0 128 8.5t56 4.5t15 -31q3 -38 -9 -51q-9 -9 -47 -21q-72 -23 -85 -29q-48 -24 -52 -63 q-35 -344 -98 -602q-99 -406 -336 -406q-91 0 -193 46t-102 81z" />
<glyph unicode="&#xb7;" horiz-adv-x="504" d="M129 555q0 59 40 99t93 40q111 0 111 -121q0 -61 -38 -105t-91 -44q-115 0 -115 131z" />
<glyph unicode="&#xb8;" horiz-adv-x="979" d="M163 -375q-3 22 7 23q248 30 248 114q0 61 -154 93q-31 6 -8 32q39 50 121 152h90q-48 -54 -80 -102q-14 -21 10 -27q183 -45 183 -133q0 -163 -404 -174q-10 -1 -13 22z" />
<glyph unicode="&#xb9;" horiz-adv-x="711" d="M80 502q3 22 47 28q91 14 106 19q28 10 33 43l94 588q0 16 -18 16q-60 0 -127 -14q-39 -9 -45 18q-8 36 33 45q138 30 284 90q15 6 29 6q33 0 29 -28q-24 -64 -43 -189l-82 -524q-5 -30 17 -43q17 -10 73 -21q47 -8 43 -32q-4 -25 -20 -31q-8 -3 -42 -2q-239 6 -370 -2 q-30 -2 -37.5 4.5t-3.5 28.5z" />
<glyph unicode="&#xba;" horiz-adv-x="674" d="M29 479q20 75 63 72q125 -8 471 2q36 1 46 -5t3 -24q-10 -64 -61 -63q-322 5 -449 -8q-37 -4 -53 -2q-24 3 -20 28zM90 948q0 170 104 282q96 103 224 103q229 0 229 -252q0 -169 -100 -284q-95 -111 -225 -111q-232 0 -232 262zM219 979q0 -217 135 -217 q77 0 120.5 73.5t43.5 202.5q0 222 -129 222q-76 0 -123 -75.5t-47 -205.5z" />
<glyph unicode="&#xbb;" horiz-adv-x="1090" d="M37 -14q-5 37 29 73l303 324l-215 328q-27 40 -9 67q11 16 31 -4l367 -360q18 -18 18 -31q0 -15 -26 -35l-467 -358q-29 -22 -31 -4zM467 -14q-5 37 29 73l303 324l-215 328q-27 40 -9 67q11 16 31 -4l367 -360q18 -18 18 -31q0 -15 -26 -35l-467 -358q-29 -22 -31 -4z " />
<glyph unicode="&#xbc;" horiz-adv-x="2048" d="M80 502q3 22 47 28q91 14 106 19q28 10 33 43l94 588q0 16 -18 16q-60 0 -127 -14q-39 -9 -45 18q-8 36 33 45q138 30 284 90q15 6 29 6q33 0 29 -28q-24 -64 -43 -189l-82 -524q-5 -30 17 -43q17 -10 73 -21q47 -8 43 -32q-4 -25 -20 -31q-8 -3 -42 -2q-239 6 -370 -2 q-30 -2 -37.5 4.5t-3.5 28.5zM266 3q0 7 8 15q247 259 1249 1325q22 24 62 -2q36 -22 16 -47q-497 -518 -1249 -1323q-25 -27 -62 2q-24 20 -24 30zM1016 269q-3 24 12 36q491 409 604 551q16 21 84 -4q18 -5 4 -43q-12 -46 -27 -107q-17 -116 -59 -383q38 0 61 5 q54 9 80 38q11 20 41 15q12 -2 12 -15q0 -22 -32 -88q-27 -52 -58 -49q-42 2 -119 6q-6 -40 -28 -198q-6 -23 -90 -43q-15 -4 -27 -5q-22 -3 -30.5 1.5t-6.5 15.5q18 90 43 229q-46 4 -446 15q-15 0 -18 23zM1185 332l307 -6q6 28 56 342q-119 -116 -363 -336z" />
<glyph unicode="&#xbd;" horiz-adv-x="2048" d="M80 502q3 22 47 28q91 14 106 19q28 10 33 43l94 588q0 16 -18 16q-60 0 -127 -14q-39 -9 -45 18q-8 36 33 45q138 30 284 90q15 6 29 6q33 0 29 -28q-24 -64 -43 -189l-82 -524q-5 -30 17 -43q17 -10 73 -21q47 -8 43 -32q-4 -25 -20 -31q-8 -3 -42 -2q-239 6 -370 -2 q-30 -2 -37.5 4.5t-3.5 28.5zM266 3q0 7 8 15q247 259 1249 1325q22 24 62 -2q36 -22 16 -47q-497 -518 -1249 -1323q-25 -27 -62 2q-24 20 -24 30zM1140 39q0 19 11 27q357 264 445 349q106 101 106 197q0 131 -148 131q-105 0 -225 -69q-30 -17 -47 10q-17 26 18 53 q157 121 318 121q262 0 262 -209q0 -120 -123 -233q-80 -74 -387 -279q-12 -12 -2 -12q112 -10 158 -10q124 0 174 13q40 11 77 46q29 27 52 23q43 -17 20 -43q-38 -55 -84 -152q-16 -33 -57 -22q-110 28 -543 28q-25 0 -25 31z" />
<glyph unicode="&#xbe;" horiz-adv-x="2048" d="M16 484q-2 21 14 39q11 12 38 9q73 -6 106 -6q142 0 224.5 60t82.5 159q0 142 -168 142h-41q-23 0 -30 24q-9 28 28 39q140 43 195 87q49 39 49 95q0 107 -113 107q-99 0 -186 -41q-29 -14 -47 12q-15 26 22 45q141 72 263 72q233 0 233 -160q0 -144 -213 -215 q180 -42 180 -186q0 -147 -144 -231q-135 -78 -351 -78q-60 0 -117 8q-23 3 -25 19zM303 3q0 7 8 15q247 259 1249 1325q22 24 62 -2q36 -22 16 -47q-497 -518 -1249 -1323q-25 -27 -62 2q-24 20 -24 30zM1068 269q-3 24 12 36q491 409 604 551q16 21 84 -4q18 -5 4 -43 q-12 -46 -27 -107q-17 -116 -59 -383q38 0 61 5q54 9 80 38q11 20 41 15q12 -2 12 -15q0 -22 -32 -88q-27 -52 -58 -49q-42 2 -119 6q-6 -40 -28 -198q-6 -23 -90 -43q-15 -4 -27 -5q-22 -3 -30.5 1.5t-6.5 15.5q18 90 43 229q-46 4 -446 15q-15 0 -18 23zM1237 332l307 -6 q6 28 56 342q-119 -116 -363 -336z" />
<glyph unicode="&#xbf;" horiz-adv-x="756" d="M35 262q0 133 60 207q53 66 192 125l135 57q74 32 74 78q0 32 -27 56q-20 18 -109 73q-14 9 0 41q21 46 37 37q119 -57 168 -106q56 -55 56 -130q0 -77 -46 -125q-40 -41 -143 -83l-149 -62q-152 -62 -152 -172q0 -76 55 -128q59 -56 154 -56q51 0 98 78q35 57 84 57 q84 0 84 -109q0 -54 -59.5 -91.5t-153.5 -37.5q-165 0 -267 94q-91 83 -91 197zM465 1202q0 57 34.5 96t82.5 39q104 0 104 -116q0 -55 -36 -92t-85 -37q-100 0 -100 110z" />
<glyph unicode="&#xc0;" horiz-adv-x="1499" d="M-10 18q-1 25 70.5 56t134.5 143q232 417 294 533q161 301 254 520q25 58 91 82q19 5 36 -58q150 -551 320 -1112q28 -93 125 -125q40 -13 33 -37q-12 -40 -41 -30q-132 26 -392 6q-51 -4 -51 20q-2 27 37 43q111 45 111 87q0 13 -6 38q-26 95 -80 285q-70 -4 -244 -4 q-146 0 -242 8q-25 -50 -125 -240q-21 -41 -21 -73q0 -49 48 -72q82 -39 82 -53l-2 -8q-5 -34 -62 -27q-166 19 -331 -12q-18 -5 -26 -3q-12 4 -13 33zM483 551q99 -8 230 -8q84 0 190 4q-46 158 -141 479q-5 17 -15 17q-11 0 -20 -17q-90 -176 -244 -475zM581 1773 q0 18 45.5 42t85.5 24q20 0 39 -27q10 -13 42 -129q35 -124 83 -205q7 -11 -14 -22q-33 -18 -47 -4q-118 118 -217 272q-17 25 -17 49z" />
<glyph unicode="&#xc1;" horiz-adv-x="1499" d="M-10 18q-1 25 70.5 56t134.5 143q232 417 294 533q161 301 254 520q25 58 91 82q19 5 36 -58q150 -551 320 -1112q28 -93 125 -125q40 -13 33 -37q-12 -40 -41 -30q-132 26 -392 6q-51 -4 -51 20q-2 27 37 43q111 45 111 87q0 13 -6 38q-26 95 -80 285q-70 -4 -244 -4 q-146 0 -242 8q-25 -50 -125 -240q-21 -41 -21 -73q0 -49 48 -72q82 -39 82 -53l-2 -8q-5 -34 -62 -27q-166 19 -331 -12q-18 -5 -26 -3q-12 4 -13 33zM483 551q99 -8 230 -8q84 0 190 4q-46 158 -141 479q-5 17 -15 17q-11 0 -20 -17q-90 -176 -244 -475zM731 1484 q71 79 138 200q64 114 75 126q35 29 54 29q40 0 80 -25q36 -24 36 -41q0 -25 -28 -55q-134 -141 -293 -264q-23 -18 -53 2q-22 14 -9 28z" />
<glyph unicode="&#xc2;" horiz-adv-x="1499" d="M-10 18q-1 25 70.5 56t134.5 143q232 417 294 533q161 301 254 520q25 58 91 82q19 5 36 -58q150 -551 320 -1112q28 -93 125 -125q40 -13 33 -37q-12 -40 -41 -30q-132 26 -392 6q-51 -4 -51 20q-2 27 37 43q111 45 111 87q0 13 -6 38q-26 95 -80 285q-70 -4 -244 -4 q-146 0 -242 8q-25 -50 -125 -240q-21 -41 -21 -73q0 -49 48 -72q82 -39 82 -53l-2 -8q-5 -34 -62 -27q-166 19 -331 -12q-18 -5 -26 -3q-12 4 -13 33zM483 551q99 -8 230 -8q84 0 190 4q-46 158 -141 479q-5 17 -15 17q-11 0 -20 -17q-90 -176 -244 -475zM551 1433 q177 193 266 326q17 25 53 25q34 0 43 -25q45 -120 179 -326q9 -14 -17 -28q-37 -22 -55 -6q-87 77 -174 196q-115 -107 -238 -196q-17 -17 -51 6q-20 13 -6 28z" />
<glyph unicode="&#xc3;" horiz-adv-x="1499" d="M-10 18q-1 25 70.5 56t134.5 143q232 417 294 533q161 301 254 520q25 58 91 82q19 5 36 -58q150 -551 320 -1112q28 -93 125 -125q40 -13 33 -37q-12 -40 -41 -30q-132 26 -392 6q-51 -4 -51 20q-2 27 37 43q111 45 111 87q0 13 -6 38q-26 95 -80 285q-70 -4 -244 -4 q-146 0 -242 8q-25 -50 -125 -240q-21 -41 -21 -73q0 -49 48 -72q82 -39 82 -53l-2 -8q-5 -34 -62 -27q-166 19 -331 -12q-18 -5 -26 -3q-12 4 -13 33zM483 551q99 -8 230 -8q84 0 190 4q-46 158 -141 479q-5 17 -15 17q-11 0 -20 -17q-90 -176 -244 -475zM494 1485 q69 78 127 137l5 6q55 56 108 56q28 0 142 -36t124 -36q31 0 57 21l107 82q13 10 43 -17q19 -17 6 -30q-51 -62 -127 -138q-60 -59 -113 -59q-27 0 -140.5 35t-125.5 35q-32 0 -57 -19q-40 -32 -107 -82q-15 -12 -43 15q-18 17 -6 30z" />
<glyph unicode="&#xc4;" horiz-adv-x="1499" d="M-10 18q-1 25 70.5 56t134.5 143q232 417 294 533q161 301 254 520q25 58 91 82q19 5 36 -58q150 -551 320 -1112q28 -93 125 -125q40 -13 33 -37q-12 -40 -41 -30q-132 26 -392 6q-51 -4 -51 20q-2 27 37 43q111 45 111 87q0 13 -6 38q-26 95 -80 285q-70 -4 -244 -4 q-146 0 -242 8q-25 -50 -125 -240q-21 -41 -21 -73q0 -49 48 -72q82 -39 82 -53l-2 -8q-5 -34 -62 -27q-166 19 -331 -12q-18 -5 -26 -3q-12 4 -13 33zM483 551q99 -8 230 -8q84 0 190 4q-46 158 -141 479q-5 17 -15 17q-11 0 -20 -17q-90 -176 -244 -475zM551 1532 q0 52 36 90.5t82 38.5q89 0 89 -98q0 -54 -34.5 -94.5t-80.5 -40.5q-92 0 -92 104zM913 1532q0 52 36 90.5t83 38.5q51 0 69.5 -21.5t18.5 -76.5q0 -54 -34.5 -94.5t-80.5 -40.5q-92 0 -92 104z" />
<glyph unicode="&#xc5;" horiz-adv-x="1499" d="M-10 18q-1 25 70.5 56t134.5 143q232 417 294 533q161 301 254 520q25 58 91 82q19 5 36 -58q150 -551 320 -1112q28 -93 125 -125q40 -13 33 -37q-12 -40 -41 -30q-132 26 -392 6q-51 -4 -51 20q-2 27 37 43q111 45 111 87q0 13 -6 38q-26 95 -80 285q-70 -4 -244 -4 q-146 0 -242 8q-25 -50 -125 -240q-21 -41 -21 -73q0 -49 48 -72q82 -39 82 -53l-2 -8q-5 -34 -62 -27q-166 19 -331 -12q-18 -5 -26 -3q-12 4 -13 33zM483 551q99 -8 230 -8q84 0 190 4q-46 158 -141 479q-5 17 -15 17q-11 0 -20 -17q-90 -176 -244 -475zM648 1633 q0 85 59 146t143 61t143.5 -61t59.5 -146t-59 -144t-144 -59q-84 0 -143 59t-59 144zM729 1633q0 -57 35 -93t86 -36q52 0 86.5 36t34.5 93q0 56 -35 93.5t-86 37.5t-86 -37.5t-35 -93.5z" />
<glyph unicode="&#xc6;" horiz-adv-x="1839" d="M-16 16q2 23 73 52q79 31 162 149q401 571 629 926q28 44 28 59q0 27 -77 49q-35 10 -25 49q9 19 21 21q11 3 51 -4q62 -11 369 -10q298 1 458 12q62 4 62 -8q-1 -5 -2 -11q-36 -102 -45 -225q-6 -31 -31 -31q-28 0 -35 27q-17 70 -34 95q-25 38 -83 48q-44 9 -278 9 q-31 0 -39 -11q-5 -6 -8 -30l-54 -418q-2 -18 3 -21.5t24 -3.5q76 2 229 13q45 5 80 112q14 41 49 31q28 -8 21 -31q-47 -140 -62 -354q-1 -24 -32 -29q-31 -4 -31 33q0 65 -5 82q-11 43 -56 49q-76 10 -216 10q-18 0 -18 -14q-9 -82 -55 -436q-3 -19 -3 -33q0 -66 86 -82 q24 -4 142 -4q123 0 192 36q77 41 128 144q18 33 49 21q27 -8 16 -37q-40 -113 -61 -240q-4 -20 -62 -16q-355 22 -766 -2q-24 -2 -32 4t-7 31q6 26 45 30q60 7 79.5 24.5t27.5 82.5l39 303q-70 -2 -215 -2q-99 0 -205 4q-72 -102 -174 -254q-26 -39 -26 -67q0 -40 57 -62 q49 -19 51 -20q25 -16 22 -43q-2 -19 -15 -24q-14 -4 -63 1q-161 17 -348 -12q-6 -2 -11 -3q-15 -3 -18.5 3.5t-0.5 27.5zM563 547q111 -4 185 -4q23 0 91.5 1t98.5 1l78 626q4 37 -7 37q-12 0 -34 -34z" />
<glyph unicode="&#xc7;" horiz-adv-x="1452" d="M113 526q0 346 249 582q245 231 592 231q163 0 275 -39q116 -40 114 -79q-3 -90 -20 -248q-3 -30 -53 -33q-36 -2 -41 25q-32 152 -108 219q-79 69 -228 69q-242 0 -409 -196q-171 -201 -171 -506q0 -223 115 -356q119 -138 330 -138q302 0 440 338q14 34 40 34 q10 0 24 -3q41 -5 32 -41q-40 -177 -80 -262q-26 -57 -144 -101q-140 -53 -337 -53q-297 0 -458.5 147t-161.5 410zM503 -375q-3 22 7 23q248 30 248 114q0 61 -154 93q-31 6 -8 32q39 50 121 152h90q-48 -54 -80 -102q-14 -21 10 -27q183 -45 183 -133q0 -163 -404 -174 q-10 -1 -13 22z" />
<glyph unicode="&#xc8;" horiz-adv-x="1204" d="M53 27q5 26 47 30q60 7 79.5 24.5t27.5 82.5l112 921q7 51 7 75q0 46 -29 65q-34 15 -69 29q-26 12 -17 46q11 27 70 17q57 -10 307 -10q263 0 452 12q60 4 60 -8q0 -4 -2 -11q-27 -78 -45 -225q-4 -31 -33 -31q-26 0 -33 27q-17 71 -33 95q-24 38 -82 48q-45 9 -323 9 q-32 0 -41 -11q-5 -6 -8 -30l-54 -418q-2 -18 3 -21.5t24 -3.5q88 2 254 13q45 5 78 112q12 41 49 31q30 -8 23 -31q-48 -152 -62 -354q-2 -24 -33 -29q-32 -4 -32 33q0 65 -5 82q-12 43 -57 49q-73 10 -235 10q-19 0 -19 -14q-9 -82 -55 -436q-2 -17 -2 -29q0 -70 105 -86 q24 -4 165 -4q232 0 318 174q19 40 49 27q31 -7 20 -37q-38 -107 -63 -240q-4 -19 -62 -16q-147 8 -370 8q-255 0 -445 -10q-25 -2 -33.5 4t-7.5 31zM430 1753q0 18 45.5 42t85.5 24q20 0 39 -27q10 -13 42 -129q35 -124 83 -205q7 -11 -14 -22q-33 -18 -47 -4 q-118 118 -217 272q-17 25 -17 49z" />
<glyph unicode="&#xc9;" horiz-adv-x="1204" d="M53 27q5 26 47 30q60 7 79.5 24.5t27.5 82.5l112 921q7 51 7 75q0 46 -29 65q-34 15 -69 29q-26 12 -17 46q11 27 70 17q57 -10 307 -10q263 0 452 12q60 4 60 -8q0 -4 -2 -11q-27 -78 -45 -225q-4 -31 -33 -31q-26 0 -33 27q-17 71 -33 95q-24 38 -82 48q-45 9 -323 9 q-32 0 -41 -11q-5 -6 -8 -30l-54 -418q-2 -18 3 -21.5t24 -3.5q88 2 254 13q45 5 78 112q12 41 49 31q30 -8 23 -31q-48 -152 -62 -354q-2 -24 -33 -29q-32 -4 -32 33q0 65 -5 82q-12 43 -57 49q-73 10 -235 10q-19 0 -19 -14q-9 -82 -55 -436q-2 -17 -2 -29q0 -70 105 -86 q24 -4 165 -4q232 0 318 174q19 40 49 27q31 -7 20 -37q-38 -107 -63 -240q-4 -19 -62 -16q-147 8 -370 8q-255 0 -445 -10q-25 -2 -33.5 4t-7.5 31zM577 1464q71 79 138 200q64 114 75 126q35 29 54 29q40 0 80 -25q36 -24 36 -41q0 -25 -28 -55q-134 -141 -293 -264 q-23 -18 -53 2q-22 14 -9 28z" />
<glyph unicode="&#xca;" horiz-adv-x="1204" d="M53 27q5 26 47 30q60 7 79.5 24.5t27.5 82.5l112 921q7 51 7 75q0 46 -29 65q-34 15 -69 29q-26 12 -17 46q11 27 70 17q57 -10 307 -10q263 0 452 12q60 4 60 -8q0 -4 -2 -11q-27 -78 -45 -225q-4 -31 -33 -31q-26 0 -33 27q-17 71 -33 95q-24 38 -82 48q-45 9 -323 9 q-32 0 -41 -11q-5 -6 -8 -30l-54 -418q-2 -18 3 -21.5t24 -3.5q88 2 254 13q45 5 78 112q12 41 49 31q30 -8 23 -31q-48 -152 -62 -354q-2 -24 -33 -29q-32 -4 -32 33q0 65 -5 82q-12 43 -57 49q-73 10 -235 10q-19 0 -19 -14q-9 -82 -55 -436q-2 -17 -2 -29q0 -70 105 -86 q24 -4 165 -4q232 0 318 174q19 40 49 27q31 -7 20 -37q-38 -107 -63 -240q-4 -19 -62 -16q-147 8 -370 8q-255 0 -445 -10q-25 -2 -33.5 4t-7.5 31zM412 1464q177 193 266 326q17 25 53 25q34 0 43 -25q45 -120 179 -326q9 -14 -17 -28q-37 -22 -55 -6q-87 77 -174 196 q-115 -107 -238 -196q-17 -17 -51 6q-20 13 -6 28z" />
<glyph unicode="&#xcb;" horiz-adv-x="1204" d="M53 27q5 26 47 30q60 7 79.5 24.5t27.5 82.5l112 921q7 51 7 75q0 46 -29 65q-34 15 -69 29q-26 12 -17 46q11 27 70 17q57 -10 307 -10q263 0 452 12q60 4 60 -8q0 -4 -2 -11q-27 -78 -45 -225q-4 -31 -33 -31q-26 0 -33 27q-17 71 -33 95q-24 38 -82 48q-45 9 -323 9 q-32 0 -41 -11q-5 -6 -8 -30l-54 -418q-2 -18 3 -21.5t24 -3.5q88 2 254 13q45 5 78 112q12 41 49 31q30 -8 23 -31q-48 -152 -62 -354q-2 -24 -33 -29q-32 -4 -32 33q0 65 -5 82q-12 43 -57 49q-73 10 -235 10q-19 0 -19 -14q-9 -82 -55 -436q-2 -17 -2 -29q0 -70 105 -86 q24 -4 165 -4q232 0 318 174q19 40 49 27q31 -7 20 -37q-38 -107 -63 -240q-4 -19 -62 -16q-147 8 -370 8q-255 0 -445 -10q-25 -2 -33.5 4t-7.5 31zM412 1552q0 52 36 90.5t82 38.5q89 0 89 -98q0 -54 -34.5 -94.5t-80.5 -40.5q-92 0 -92 104zM774 1552q0 52 36 90.5 t83 38.5q51 0 69.5 -21.5t18.5 -76.5q0 -54 -34.5 -94.5t-80.5 -40.5q-92 0 -92 104z" />
<glyph unicode="&#xcc;" horiz-adv-x="762" d="M58 16q0 6 1 17q5 20 47 30q65 16 83 32q23 20 30 77l121 981q6 49 -29 72q-25 17 -100 30q-47 9 -43 29q5 27 13 34.5t34 4.5q191 -22 397 4q57 7 57 -17q0 -6 -1 -16q-4 -25 -56 -41q-56 -17 -71 -28q-27 -20 -33 -66l-121 -973q-11 -88 125 -114q51 -10 47 -39 q-4 -28 -20 -34q-7 -3 -43 -1q-256 11 -398 0q-39 -3 -40 18zM184 1753q0 18 45.5 42t85.5 24q20 0 39 -27q10 -13 42 -129q35 -124 83 -205q7 -11 -14 -22q-33 -18 -47 -4q-118 118 -217 272q-17 25 -17 49z" />
<glyph unicode="&#xcd;" horiz-adv-x="762" d="M58 16q0 6 1 17q5 20 47 30q65 16 83 32q23 20 30 77l121 981q6 49 -29 72q-25 17 -100 30q-47 9 -43 29q5 27 13 34.5t34 4.5q191 -22 397 4q57 7 57 -17q0 -6 -1 -16q-4 -25 -56 -41q-56 -17 -71 -28q-27 -20 -33 -66l-121 -973q-11 -88 125 -114q51 -10 47 -39 q-4 -28 -20 -34q-7 -3 -43 -1q-256 11 -398 0q-39 -3 -40 18zM387 1464q71 79 138 200q64 114 75 126q35 29 54 29q40 0 80 -25q36 -24 36 -41q0 -25 -28 -55q-134 -141 -293 -264q-23 -18 -53 2q-22 14 -9 28z" />
<glyph unicode="&#xce;" horiz-adv-x="762" d="M58 16q0 6 1 17q5 20 47 30q65 16 83 32q23 20 30 77l121 981q6 49 -29 72q-25 17 -100 30q-47 9 -43 29q5 27 13 34.5t34 4.5q191 -22 397 4q57 7 57 -17q0 -6 -1 -16q-4 -25 -56 -41q-56 -17 -71 -28q-27 -20 -33 -66l-121 -973q-11 -88 125 -114q51 -10 47 -39 q-4 -28 -20 -34q-7 -3 -43 -1q-256 11 -398 0q-39 -3 -40 18zM168 1464q177 193 266 326q17 25 53 25q34 0 43 -25q45 -120 179 -326q9 -14 -17 -28q-37 -22 -55 -6q-87 77 -174 196q-115 -107 -238 -196q-17 -17 -51 6q-20 13 -6 28z" />
<glyph unicode="&#xcf;" horiz-adv-x="762" d="M58 16q0 6 1 17q5 20 47 30q65 16 83 32q23 20 30 77l121 981q6 49 -29 72q-25 17 -100 30q-47 9 -43 29q5 27 13 34.5t34 4.5q191 -22 397 4q57 7 57 -17q0 -6 -1 -16q-4 -25 -56 -41q-56 -17 -71 -28q-27 -20 -33 -66l-121 -973q-11 -88 125 -114q51 -10 47 -39 q-4 -28 -20 -34q-7 -3 -43 -1q-256 11 -398 0q-39 -3 -40 18zM168 1552q0 52 36 90.5t82 38.5q89 0 89 -98q0 -54 -34.5 -94.5t-80.5 -40.5q-92 0 -92 104zM530 1552q0 52 36 90.5t83 38.5q51 0 69.5 -21.5t18.5 -76.5q0 -54 -34.5 -94.5t-80.5 -40.5q-92 0 -92 104z" />
<glyph unicode="&#xd0;" horiz-adv-x="1563" d="M55 27q3 22 47 32q66 16 82.5 37.5t26.5 102.5l115 923q2 19 2 32q0 50 -86 69q-46 9 -55 16t-9 31t22 31q4 1 44 4q206 14 532 14q192 0 316 -41q79 -26 170 -88q76 -53 126 -145q60 -110 60 -242q0 -418 -249 -627q-224 -188 -628 -188q-30 0 -132.5 6t-166.5 6 q-79 0 -178 -8q-26 -2 -33.5 4t-5.5 31zM125 688q9 43 33 43q41 0 143 -2q91 -3 143 -2q201 0 287 4q25 1 31.5 -5.5t1.5 -23.5q-21 -74 -47 -73l-285 4q-52 1 -144 -2q-103 -2 -145 -2q-29 0 -18 59zM382 203q0 -70 49 -95.5t179 -25.5q637 0 637 680q0 255 -133 366 q-127 107 -391 107q-140 0 -184 -15q-35 -12 -39 -49l-115 -925q-3 -24 -3 -43z" />
<glyph unicode="&#xd1;" horiz-adv-x="1632" d="M27 33q2 21 47 30q78 18 107 54q23 29 32 100l109 885q8 66 -111 147q-42 29 -37 47q5 27 43 21q121 -19 213 -8q48 5 80 -37q496 -645 686 -920q10 -14 17 -14q9 0 12 24l92 748q1 12 1 23q0 106 -112 127q-46 8 -43 28q7 42 49 37q153 -18 349 4q18 2 28 2q31 0 27 -35 q-3 -25 -55 -41q-123 -36 -136 -139l-88 -719q-23 -195 -39 -366q-4 -53 -30 -60q-42 -10 -64 47q-36 97 -309 467q-240 327 -449 580q-7 9 -16 4q-10 -4 -12 -22l-92 -818q-2 -15 -2 -29q0 -106 108 -128q50 -10 47 -39q-8 -37 -63 -35q-226 10 -350 0q-27 -2 -34.5 5.5 t-4.5 29.5zM571 1474q69 78 127 137l5 6q55 56 108 56q28 0 142 -36t124 -36q31 0 57 21l107 82q13 10 43 -17q19 -17 6 -30q-51 -62 -127 -138q-60 -59 -113 -59q-27 0 -140.5 35t-125.5 35q-32 0 -57 -19q-40 -32 -107 -82q-15 -12 -43 15q-18 17 -6 30z" />
<glyph unicode="&#xd2;" d="M113 547q0 340 239 574q227 222 527 222q280 0 447 -153.5t167 -415.5q0 -342 -233 -576q-227 -227 -545 -227q-267 0 -432 153q-170 157 -170 423zM307 586q0 -237 130 -377.5t349 -140.5q226 0 371 191q141 187 141 470q0 229 -123 369q-130 147 -352 147 q-216 0 -363 -180q-153 -187 -153 -479zM596 1773q0 18 45.5 42t85.5 24q20 0 39 -27q10 -13 42 -129q35 -124 83 -205q7 -11 -14 -22q-33 -18 -47 -4q-118 118 -217 272q-17 25 -17 49z" />
<glyph unicode="&#xd3;" d="M113 547q0 340 239 574q227 222 527 222q280 0 447 -153.5t167 -415.5q0 -342 -233 -576q-227 -227 -545 -227q-267 0 -432 153q-170 157 -170 423zM307 586q0 -237 130 -377.5t349 -140.5q226 0 371 191q141 187 141 470q0 229 -123 369q-130 147 -352 147 q-216 0 -363 -180q-153 -187 -153 -479zM735 1484q71 79 138 200q64 114 75 126q35 29 54 29q40 0 80 -25q36 -24 36 -41q0 -25 -28 -55q-134 -141 -293 -264q-23 -18 -53 2q-22 14 -9 28z" />
<glyph unicode="&#xd4;" d="M113 547q0 340 239 574q227 222 527 222q280 0 447 -153.5t167 -415.5q0 -342 -233 -576q-227 -227 -545 -227q-267 0 -432 153q-170 157 -170 423zM307 586q0 -237 130 -377.5t349 -140.5q226 0 371 191q141 187 141 470q0 229 -123 369q-130 147 -352 147 q-216 0 -363 -180q-153 -187 -153 -479zM606 1464q177 193 266 326q17 25 53 25q34 0 43 -25q45 -120 179 -326q9 -14 -17 -28q-37 -22 -55 -6q-87 77 -174 196q-115 -107 -238 -196q-17 -17 -51 6q-20 13 -6 28z" />
<glyph unicode="&#xd5;" d="M113 547q0 340 239 574q227 222 527 222q280 0 447 -153.5t167 -415.5q0 -342 -233 -576q-227 -227 -545 -227q-267 0 -432 153q-170 157 -170 423zM307 586q0 -237 130 -377.5t349 -140.5q226 0 371 191q141 187 141 470q0 229 -123 369q-130 147 -352 147 q-216 0 -363 -180q-153 -187 -153 -479zM535 1485q69 78 127 137l5 6q55 56 108 56q28 0 142 -36t124 -36q31 0 57 21l107 82q13 10 43 -17q19 -17 6 -30q-51 -62 -127 -138q-60 -59 -113 -59q-27 0 -140.5 35t-125.5 35q-32 0 -57 -19q-40 -32 -107 -82q-15 -12 -43 15 q-18 17 -6 30z" />
<glyph unicode="&#xd6;" d="M113 547q0 340 239 574q227 222 527 222q280 0 447 -153.5t167 -415.5q0 -342 -233 -576q-227 -227 -545 -227q-267 0 -432 153q-170 157 -170 423zM307 586q0 -237 130 -377.5t349 -140.5q226 0 371 191q141 187 141 470q0 229 -123 369q-130 147 -352 147 q-216 0 -363 -180q-153 -187 -153 -479zM600 1532q0 52 36 90.5t82 38.5q89 0 89 -98q0 -54 -34.5 -94.5t-80.5 -40.5q-92 0 -92 104zM962 1532q0 52 36 90.5t83 38.5q51 0 69.5 -21.5t18.5 -76.5q0 -54 -34.5 -94.5t-80.5 -40.5q-92 0 -92 104z" />
<glyph unicode="&#xd7;" horiz-adv-x="1083" d="M116 762q14 13 39 13q26 0 43 -16l309 -309l333 333q13 13 25 2q14 -14 14 -38q0 -27 -17 -43l-305 -305l331 -331q13 -13 -6 -32q-14 -13 -29 -13q-21 0 -43 22l-303 303l-336 -335q-13 -13 -31 6q-14 14 -14 30q0 20 22 42l308 308l-338 338q-13 13 -2 25z" />
<glyph unicode="&#xd8;" d="M113 547q0 340 239 574q227 222 527 222q280 0 447 -153.5t167 -415.5q0 -342 -233 -576q-227 -227 -545 -227q-267 0 -432 153q-170 157 -170 423zM174 -86l1163 1505q13 17 46.5 -11t21.5 -44q-387 -500 -1163 -1507q-11 -18 -49 12q-34 26 -19 45zM307 586 q0 -237 130 -377.5t349 -140.5q226 0 371 191q141 187 141 470q0 229 -123 369q-130 147 -352 147q-216 0 -363 -180q-153 -187 -153 -479z" />
<glyph unicode="&#xd9;" horiz-adv-x="1589" d="M150 1278q3 30 16 36q8 3 45 1q253 -14 391 0q12 1 19 1q13 0 17 -4t3 -15q0 -6 -2 -19q-3 -21 -45 -31q-86 -19 -105 -33q-23 -18 -30 -75l-74 -600q-8 -68 -8 -125q0 -176 84 -260q88 -86 278 -86q394 0 459 505q30 238 66 535q2 15 2 29q0 86 -113 108q-51 10 -47 37 q4 30 17 35q7 3 44 2q266 -11 367 0q27 3 33.5 -3.5t3.5 -33.5q-2 -20 -47 -31q-82 -19 -105.5 -42t-32.5 -87q-26 -225 -65 -549q-79 -602 -627 -602q-489 0 -489 431q0 58 8 124l74 600q1 10 1 19q0 78 -93 96q-48 9 -45 37zM594 1753q0 18 45.5 42t85.5 24q20 0 39 -27 q10 -13 42 -129q35 -124 83 -205q7 -11 -14 -22q-33 -18 -47 -4q-118 118 -217 272q-17 25 -17 49z" />
<glyph unicode="&#xda;" horiz-adv-x="1589" d="M150 1278q3 30 16 36q8 3 45 1q253 -14 391 0q12 1 19 1q13 0 17 -4t3 -15q0 -6 -2 -19q-3 -21 -45 -31q-86 -19 -105 -33q-23 -18 -30 -75l-74 -600q-8 -68 -8 -125q0 -176 84 -260q88 -86 278 -86q394 0 459 505q30 238 66 535q2 15 2 29q0 86 -113 108q-51 10 -47 37 q4 30 17 35q7 3 44 2q266 -11 367 0q27 3 33.5 -3.5t3.5 -33.5q-2 -20 -47 -31q-82 -19 -105.5 -42t-32.5 -87q-26 -225 -65 -549q-79 -602 -627 -602q-489 0 -489 431q0 58 8 124l74 600q1 10 1 19q0 78 -93 96q-48 9 -45 37zM735 1484q71 79 138 200q64 114 75 126 q35 29 54 29q40 0 80 -25q36 -24 36 -41q0 -25 -28 -55q-134 -141 -293 -264q-23 -18 -53 2q-22 14 -9 28z" />
<glyph unicode="&#xdb;" horiz-adv-x="1589" d="M150 1278q3 30 16 36q8 3 45 1q253 -14 391 0q12 1 19 1q13 0 17 -4t3 -15q0 -6 -2 -19q-3 -21 -45 -31q-86 -19 -105 -33q-23 -18 -30 -75l-74 -600q-8 -68 -8 -125q0 -176 84 -260q88 -86 278 -86q394 0 459 505q30 238 66 535q2 15 2 29q0 86 -113 108q-51 10 -47 37 q4 30 17 35q7 3 44 2q266 -11 367 0q27 3 33.5 -3.5t3.5 -33.5q-2 -20 -47 -31q-82 -19 -105.5 -42t-32.5 -87q-26 -225 -65 -549q-79 -602 -627 -602q-489 0 -489 431q0 58 8 124l74 600q1 10 1 19q0 78 -93 96q-48 9 -45 37zM615 1464q177 193 266 326q17 25 53 25 q34 0 43 -25q45 -120 179 -326q9 -14 -17 -28q-37 -22 -55 -6q-87 77 -174 196q-115 -107 -238 -196q-17 -17 -51 6q-20 13 -6 28z" />
<glyph unicode="&#xdc;" horiz-adv-x="1589" d="M150 1278q3 30 16 36q8 3 45 1q253 -14 391 0q12 1 19 1q13 0 17 -4t3 -15q0 -6 -2 -19q-3 -21 -45 -31q-86 -19 -105 -33q-23 -18 -30 -75l-74 -600q-8 -68 -8 -125q0 -176 84 -260q88 -86 278 -86q394 0 459 505q30 238 66 535q2 15 2 29q0 86 -113 108q-51 10 -47 37 q4 30 17 35q7 3 44 2q266 -11 367 0q27 3 33.5 -3.5t3.5 -33.5q-2 -20 -47 -31q-82 -19 -105.5 -42t-32.5 -87q-26 -225 -65 -549q-79 -602 -627 -602q-489 0 -489 431q0 58 8 124l74 600q1 10 1 19q0 78 -93 96q-48 9 -45 37zM613 1552q0 52 36 90.5t82 38.5q89 0 89 -98 q0 -54 -34.5 -94.5t-80.5 -40.5q-92 0 -92 104zM975 1552q0 52 36 90.5t83 38.5q51 0 69.5 -21.5t18.5 -76.5q0 -54 -34.5 -94.5t-80.5 -40.5q-92 0 -92 104z" />
<glyph unicode="&#xdd;" horiz-adv-x="1495" d="M100 1276q5 46 47 41q172 -22 420 18q28 5 39 4q18 -2 15 -34q0 -21 -54 -41q-90 -35 -90 -76q0 -18 15 -43q139 -235 264 -488q9 -18 15 -18t20 18q112 147 339 445q34 45 34 75q0 46 -77 74q-42 16 -36 47q9 35 67 27q181 -24 332 -4q26 3 33.5 -2t5.5 -29 q-3 -34 -68 -53q-71 -22 -170 -137q-268 -314 -434 -549q-16 -126 -45 -354q-3 -28 -3 -44q0 -39 22 -57.5t86 -34.5q55 -13 47 -49q-8 -23 -25 -25q-4 -1 -41 3q-187 17 -369 2q-58 -11 -61 24q-3 33 37 43q82 22 109 53t36 113q11 93 35 273q-97 255 -358 637 q-66 95 -146 112l-5 1q-38 8 -36 28zM788 1433q71 79 138 200q64 114 75 126q35 29 54 29q40 0 80 -25q36 -24 36 -41q0 -25 -28 -55q-134 -141 -293 -264q-23 -18 -53 2q-22 14 -9 28z" />
<glyph unicode="&#xde;" horiz-adv-x="1161" d="M53 27q5 26 47 30q95 11 107 107l117 958q1 11 1 20q0 77 -89 97q-53 12 -50 35q4 27 15.5 33t48.5 2q114 -13 358 4q26 2 34.5 -4t6.5 -31q-5 -26 -47 -31q-95 -10 -106 -106l-9 -68q-5 -41 48 -41q9 0 53 2t94 2q187 0 294 -73q109 -76 109 -213q0 -205 -160 -320 q-141 -102 -376 -115q-19 -1 -19 31q0 25 6.5 32t32.5 9q332 29 332 336q0 123 -67 181q-73 63 -238 63q-76 0 -104 -25q-24 -22 -31 -84l-86 -694q-2 -18 -2 -28q0 -28 20 -38.5t88 -23.5q51 -10 47 -39q-3 -28 -17 -34q-7 -3 -42 -1q-168 8 -375 -8q-25 -2 -33.5 4 t-7.5 31z" />
<glyph unicode="&#xdf;" horiz-adv-x="1114" d="M-231 -434q4 104 65 104q10 0 55 -22q26 -19 58 -19q133 0 170 346l71 668q6 49 -32 51l-72 4q-24 2 -18 21q14 45 114 45h21q33 291 156 462q139 193 370 193q252 0 252 -168q0 -74 -51 -160q-28 -47 -135 -190q-88 -116 -88 -188q0 -51 30 -95q24 -34 99 -104 q88 -83 111 -114q48 -66 48 -146q0 -116 -95 -193t-236 -77q-215 0 -209 114q3 71 12.5 94t34.5 23q45 0 75 -55q52 -94 121 -94q73 0 115.5 40.5t42.5 110.5q0 42 -38 89q-28 35 -128 128q-119 111 -119 211q0 66 28 123q23 47 105 162q109 151 109 270q0 53 -40 87 t-112 34q-146 0 -217 -129q-64 -118 -96 -408l-80 -721q-28 -254 -135.5 -406.5t-249.5 -152.5q-115 0 -112 62z" />
<glyph unicode="&#xe0;" horiz-adv-x="913" d="M23 176q0 240 186 434q171 176 340 176q52 0 110 -20q15 -5 35 18q33 37 55 37q11 0 25 -8t13 -22q-1 -13 -17 -60q-94 -272 -94 -534q0 -95 31 -95t106 91q3 1 5 1q9 0 20 -12.5t11 -22.5q0 -4 -1 -5q-118 -162 -219 -162q-90 0 -90 94q0 67 22 188q2 10 -5 11 q-8 1 -13 -9q-174 -294 -346 -294q-174 0 -174 194zM170 254q0 -141 104 -141q100 0 209 190q95 163 95 277q0 108 -111 108q-95 0 -193 -132q-104 -140 -104 -302zM276 1241q0 18 45.5 42t85.5 24q20 0 39 -27q10 -13 42 -129q35 -124 83 -205q7 -11 -14 -22 q-33 -18 -47 -4q-118 118 -217 272q-17 25 -17 49z" />
<glyph unicode="&#xe1;" horiz-adv-x="913" d="M23 176q0 240 186 434q171 176 340 176q52 0 110 -20q15 -5 35 18q33 37 55 37q11 0 25 -8t13 -22q-1 -13 -17 -60q-94 -272 -94 -534q0 -95 31 -95t106 91q3 1 5 1q9 0 20 -12.5t11 -22.5q0 -4 -1 -5q-118 -162 -219 -162q-90 0 -90 94q0 67 22 188q2 10 -5 11 q-8 1 -13 -9q-174 -294 -346 -294q-174 0 -174 194zM170 254q0 -141 104 -141q100 0 209 190q95 163 95 277q0 108 -111 108q-95 0 -193 -132q-104 -140 -104 -302zM397 952q71 79 138 200q64 114 75 126q35 29 54 29q40 0 80 -25q36 -24 36 -41q0 -25 -28 -55 q-134 -141 -293 -264q-23 -18 -53 2q-22 14 -9 28z" />
<glyph unicode="&#xe2;" horiz-adv-x="913" d="M23 176q0 240 186 434q171 176 340 176q52 0 110 -20q15 -5 35 18q33 37 55 37q11 0 25 -8t13 -22q-1 -13 -17 -60q-94 -272 -94 -534q0 -95 31 -95t106 91q3 1 5 1q9 0 20 -12.5t11 -22.5q0 -4 -1 -5q-118 -162 -219 -162q-90 0 -90 94q0 67 22 188q2 10 -5 11 q-8 1 -13 -9q-174 -294 -346 -294q-174 0 -174 194zM170 254q0 -141 104 -141q100 0 209 190q95 163 95 277q0 108 -111 108q-95 0 -193 -132q-104 -140 -104 -302zM227 952q177 193 266 326q17 25 53 25q34 0 43 -25q45 -120 179 -326q9 -14 -17 -28q-37 -22 -55 -6 q-87 77 -174 196q-115 -107 -238 -196q-17 -17 -51 6q-20 13 -6 28z" />
<glyph unicode="&#xe3;" horiz-adv-x="913" d="M23 176q0 240 186 434q171 176 340 176q52 0 110 -20q15 -5 35 18q33 37 55 37q11 0 25 -8t13 -22q-1 -13 -17 -60q-94 -272 -94 -534q0 -95 31 -95t106 91q3 1 5 1q9 0 20 -12.5t11 -22.5q0 -4 -1 -5q-118 -162 -219 -162q-90 0 -90 94q0 67 22 188q2 10 -5 11 q-8 1 -13 -9q-174 -294 -346 -294q-174 0 -174 194zM162 993q69 78 127 137l5 6q55 56 108 56q28 0 142 -36t124 -36q31 0 57 21l107 82q13 10 43 -17q19 -17 6 -30q-51 -62 -127 -138q-60 -59 -113 -59q-27 0 -140.5 35t-125.5 35q-32 0 -57 -19q-40 -32 -107 -82 q-15 -12 -43 15q-18 17 -6 30zM170 254q0 -141 104 -141q100 0 209 190q95 163 95 277q0 108 -111 108q-95 0 -193 -132q-104 -140 -104 -302z" />
<glyph unicode="&#xe4;" horiz-adv-x="913" d="M23 176q0 240 186 434q171 176 340 176q52 0 110 -20q15 -5 35 18q33 37 55 37q11 0 25 -8t13 -22q-1 -13 -17 -60q-94 -272 -94 -534q0 -95 31 -95t106 91q3 1 5 1q9 0 20 -12.5t11 -22.5q0 -4 -1 -5q-118 -162 -219 -162q-90 0 -90 94q0 67 22 188q2 10 -5 11 q-8 1 -13 -9q-174 -294 -346 -294q-174 0 -174 194zM170 254q0 -141 104 -141q100 0 209 190q95 163 95 277q0 108 -111 108q-95 0 -193 -132q-104 -140 -104 -302zM230 1040q0 52 36 90.5t82 38.5q89 0 89 -98q0 -54 -34.5 -94.5t-80.5 -40.5q-92 0 -92 104zM592 1040 q0 52 36 90.5t83 38.5q51 0 69.5 -21.5t18.5 -76.5q0 -54 -34.5 -94.5t-80.5 -40.5q-92 0 -92 104z" />
<glyph unicode="&#xe5;" horiz-adv-x="913" d="M23 176q0 240 186 434q171 176 340 176q52 0 110 -20q15 -5 35 18q33 37 55 37q11 0 25 -8t13 -22q-1 -13 -17 -60q-94 -272 -94 -534q0 -95 31 -95t106 91q3 1 5 1q9 0 20 -12.5t11 -22.5q0 -4 -1 -5q-118 -162 -219 -162q-90 0 -90 94q0 67 22 188q2 10 -5 11 q-8 1 -13 -9q-174 -294 -346 -294q-174 0 -174 194zM170 254q0 -141 104 -141q100 0 209 190q95 163 95 277q0 108 -111 108q-95 0 -193 -132q-104 -140 -104 -302zM312 1096q0 85 59 146t143 61t143.5 -61t59.5 -146t-59 -144t-144 -59q-84 0 -143 59t-59 144zM393 1096 q0 -57 35 -93t86 -36q52 0 86.5 36t34.5 93q0 56 -35 93.5t-86 37.5t-86 -37.5t-35 -93.5z" />
<glyph unicode="&#xe6;" horiz-adv-x="1217" d="M23 156q0 191 440 276q38 8 43 31l6 61q3 26 3 48q0 135 -120 135q-42 0 -88 -78q-48 -82 -123 -82q-63 0 -63 65q0 46 128.5 114.5t223.5 68.5q144 0 168 -121q120 123 262 123q213 0 213 -154q0 -107 -114 -181q-109 -71 -375 -145q4 -112 53 -172q44 -55 113 -55 q81 0 184 66q37 24 53 8q19 -19 19 -35q0 -15 -19 -29q-87 -61 -145 -84q-71 -28 -162 -28q-174 0 -221 170q-108 -168 -291 -168q-84 0 -136 43.5t-52 122.5zM190 188q0 -94 107 -94q59 0 114 52q60 58 72 147l4 31q4 25 -7 33t-38 3q-252 -46 -252 -172zM629 383 q183 59 253 103q74 49 74 116q0 113 -104 113q-81 0 -145 -85q-70 -94 -78 -247z" />
<glyph unicode="&#xe7;" horiz-adv-x="754" d="M37 270q0 232 136 381q122 135 280 135q225 0 225 -96q0 -28 -45 -80q-41 -47 -68 -47q-24 0 -59 55q-47 74 -94 74q-95 0 -157 -89q-67 -96 -67 -259q0 -122 51 -193q47 -65 119 -65q88 0 168 68q35 28 52 14q22 -20 22 -34q0 -11 -14 -25q-134 -132 -283 -132 q-266 0 -266 293zM68 -386q-3 22 7 23q248 30 248 114q0 61 -154 93q-31 6 -8 32q39 50 121 152h90q-48 -54 -80 -102q-14 -21 10 -27q183 -45 183 -133q0 -163 -404 -174q-10 -1 -13 22z" />
<glyph unicode="&#xe8;" horiz-adv-x="780" d="M41 289q0 225 131 370q124 138 297 138q213 0 213 -154q0 -107 -114 -181q-109 -71 -375 -145q4 -114 54 -174q44 -53 111 -53q88 0 181 64q34 23 53 14q21 -14 21 -35q0 -16 -15 -29q-149 -116 -293 -116q-264 0 -264 301zM195 381q190 61 258.5 108.5t68.5 116.5 q0 48 -29.5 78.5t-76.5 30.5q-82 0 -145 -88q-68 -95 -76 -246zM205 1241q0 18 45.5 42t85.5 24q20 0 39 -27q10 -13 42 -129q35 -124 83 -205q7 -11 -14 -22q-33 -18 -47 -4q-118 118 -217 272q-17 25 -17 49z" />
<glyph unicode="&#xe9;" horiz-adv-x="780" d="M41 289q0 225 131 370q124 138 297 138q213 0 213 -154q0 -107 -114 -181q-109 -71 -375 -145q4 -114 54 -174q44 -53 111 -53q88 0 181 64q34 23 53 14q21 -14 21 -35q0 -16 -15 -29q-149 -116 -293 -116q-264 0 -264 301zM195 381q190 61 258.5 108.5t68.5 116.5 q0 48 -29.5 78.5t-76.5 30.5q-82 0 -145 -88q-68 -95 -76 -246zM325 952q71 79 138 200q64 114 75 126q35 29 54 29q40 0 80 -25q36 -24 36 -41q0 -25 -28 -55q-134 -141 -293 -264q-23 -18 -53 2q-22 14 -9 28z" />
<glyph unicode="&#xea;" horiz-adv-x="780" d="M41 289q0 225 131 370q124 138 297 138q213 0 213 -154q0 -107 -114 -181q-109 -71 -375 -145q4 -114 54 -174q44 -53 111 -53q88 0 181 64q34 23 53 14q21 -14 21 -35q0 -16 -15 -29q-149 -116 -293 -116q-264 0 -264 301zM184 952q177 193 266 326q17 25 53 25 q34 0 43 -25q45 -120 179 -326q9 -14 -17 -28q-37 -22 -55 -6q-87 77 -174 196q-115 -107 -238 -196q-17 -17 -51 6q-20 13 -6 28zM195 381q190 61 258.5 108.5t68.5 116.5q0 48 -29.5 78.5t-76.5 30.5q-82 0 -145 -88q-68 -95 -76 -246z" />
<glyph unicode="&#xeb;" horiz-adv-x="780" d="M41 289q0 225 131 370q124 138 297 138q213 0 213 -154q0 -107 -114 -181q-109 -71 -375 -145q4 -114 54 -174q44 -53 111 -53q88 0 181 64q34 23 53 14q21 -14 21 -35q0 -16 -15 -29q-149 -116 -293 -116q-264 0 -264 301zM185 1040q0 52 36 90.5t82 38.5q89 0 89 -98 q0 -54 -34.5 -94.5t-80.5 -40.5q-92 0 -92 104zM195 381q190 61 258.5 108.5t68.5 116.5q0 48 -29.5 78.5t-76.5 30.5q-82 0 -145 -88q-68 -95 -76 -246zM547 1040q0 52 36 90.5t83 38.5q51 0 69.5 -21.5t18.5 -76.5q0 -54 -34.5 -94.5t-80.5 -40.5q-92 0 -92 104z" />
<glyph unicode="&#xec;" horiz-adv-x="559" d="M51 622q0 5 2 7q131 162 226 162q98 0 98 -82q0 -48 -60 -267q-75 -279 -75 -313q0 -29 34 -29q29 0 107 90q2 3 5 3q9 0 20.5 -13t11.5 -23q0 -5 -2 -7q-129 -160 -225 -160q-99 0 -99 78q0 34 62 268q75 288 75 315q0 29 -36 29q-30 0 -105 -92q-2 -3 -6 -3 q-10 0 -21.5 13t-11.5 24zM92 1241q0 18 45.5 42t85.5 24q20 0 39 -27q10 -13 42 -129q35 -124 83 -205q7 -11 -14 -22q-33 -18 -47 -4q-118 118 -217 272q-17 25 -17 49z" />
<glyph unicode="&#xed;" horiz-adv-x="559" d="M51 622q0 5 2 7q131 162 226 162q98 0 98 -82q0 -48 -60 -267q-75 -279 -75 -313q0 -29 34 -29q29 0 107 90q2 3 5 3q9 0 20.5 -13t11.5 -23q0 -5 -2 -7q-129 -160 -225 -160q-99 0 -99 78q0 34 62 268q75 288 75 315q0 29 -36 29q-30 0 -105 -92q-2 -3 -6 -3 q-10 0 -21.5 13t-11.5 24zM213 952q71 79 138 200q64 114 75 126q35 29 54 29q40 0 80 -25q36 -24 36 -41q0 -25 -28 -55q-134 -141 -293 -264q-23 -18 -53 2q-22 14 -9 28z" />
<glyph unicode="&#xee;" horiz-adv-x="559" d="M49 952q177 193 266 326q17 25 53 25q34 0 43 -25q45 -120 179 -326q9 -14 -17 -28q-37 -22 -55 -6q-87 77 -174 196q-115 -107 -238 -196q-17 -17 -51 6q-20 13 -6 28zM51 622q0 5 2 7q131 162 226 162q98 0 98 -82q0 -48 -60 -267q-75 -279 -75 -313q0 -29 34 -29 q29 0 107 90q2 3 5 3q9 0 20.5 -13t11.5 -23q0 -5 -2 -7q-129 -160 -225 -160q-99 0 -99 78q0 34 62 268q75 288 75 315q0 29 -36 29q-30 0 -105 -92q-2 -3 -6 -3q-10 0 -21.5 13t-11.5 24z" />
<glyph unicode="&#xef;" horiz-adv-x="559" d="M51 622q0 5 2 7q131 162 226 162q98 0 98 -82q0 -48 -60 -267q-75 -279 -75 -313q0 -29 34 -29q29 0 107 90q2 3 5 3q9 0 20.5 -13t11.5 -23q0 -5 -2 -7q-129 -160 -225 -160q-99 0 -99 78q0 34 62 268q75 288 75 315q0 29 -36 29q-30 0 -105 -92q-2 -3 -6 -3 q-10 0 -21.5 13t-11.5 24zM62 1040q0 52 36 90.5t82 38.5q89 0 89 -98q0 -54 -34.5 -94.5t-80.5 -40.5q-92 0 -92 104zM424 1040q0 52 36 90.5t83 38.5q51 0 69.5 -21.5t18.5 -76.5q0 -54 -34.5 -94.5t-80.5 -40.5q-92 0 -92 104z" />
<glyph unicode="&#xf0;" horiz-adv-x="866" d="M43 315q0 208 129 352q117 130 254 130q89 0 145 -47q10 -9 18 -7q7 2 5 15q-39 205 -164 381q-91 -67 -170 -135q-18 -16 -29 -16q-10 0 -14 16q-31 68 -6 88q54 40 160 120q-76 86 -154 142q-59 43 -49 63q19 38 29 38q3 0 6 -1q143 -68 256 -174q57 43 164 129 q11 8 18 8q15 0 33 -41q18 -40 -2 -55q-38 -27 -148 -109q230 -262 230 -620q0 -287 -125 -452q-116 -152 -297 -152q-289 0 -289 327zM205 354q0 -274 170 -274q93 0 148 93t55 253q0 276 -162 276q-95 0 -153 -91q-58 -95 -58 -257z" />
<glyph unicode="&#xf1;" horiz-adv-x="961" d="M-3 623q0 4 1 6q122 162 219 162q92 0 92 -97q0 -55 -16 -143q-2 -8 7 -10t13 8q151 250 312 250q170 0 170 -178q0 -42 -56 -285q-39 -171 -39 -207q0 -29 35 -29q25 0 105 90q2 2 4 2q9 0 20 -12.5t11 -22.5q0 -4 -3 -7q-119 -160 -217 -160q-102 0 -102 82 q0 38 49 264q43 197 43 229q0 103 -94 103q-73 0 -159 -135q-91 -143 -130 -340l-29 -148q-8 -44 -86 -49q-30 -2 -42 6t-9 27q25 138 49 276q27 164 27 279q0 96 -31 96q-33 0 -106 -92q-3 -2 -6 -2q-10 0 -21 13t-11 24zM170 993q69 78 127 137l5 6q55 56 108 56 q28 0 142 -36t124 -36q31 0 57 21l107 82q13 10 43 -17q19 -17 6 -30q-51 -62 -127 -138q-60 -59 -113 -59q-27 0 -140.5 35t-125.5 35q-32 0 -57 -19q-40 -32 -107 -82q-15 -12 -43 15q-18 17 -6 30z" />
<glyph unicode="&#xf2;" horiz-adv-x="846" d="M43 315q0 212 130 352q121 130 282 130q139 0 213 -85q71 -82 71 -231q0 -212 -124 -356q-120 -137 -283 -137q-289 0 -289 327zM205 354q0 -278 170 -278q93 0 148 95t55 255q0 281 -162 281q-95 0 -153 -95t-58 -258zM215 1241q0 18 45.5 42t85.5 24q20 0 39 -27 q10 -13 42 -129q35 -124 83 -205q7 -11 -14 -22q-33 -18 -47 -4q-118 118 -217 272q-17 25 -17 49z" />
<glyph unicode="&#xf3;" horiz-adv-x="846" d="M43 315q0 212 130 352q121 130 282 130q139 0 213 -85q71 -82 71 -231q0 -212 -124 -356q-120 -137 -283 -137q-289 0 -289 327zM205 354q0 -278 170 -278q93 0 148 95t55 255q0 281 -162 281q-95 0 -153 -95t-58 -258zM356 952q71 79 138 200q64 114 75 126q35 29 54 29 q40 0 80 -25q36 -24 36 -41q0 -25 -28 -55q-134 -141 -293 -264q-23 -18 -53 2q-22 14 -9 28z" />
<glyph unicode="&#xf4;" horiz-adv-x="846" d="M43 315q0 212 130 352q121 130 282 130q139 0 213 -85q71 -82 71 -231q0 -212 -124 -356q-120 -137 -283 -137q-289 0 -289 327zM180 952q177 193 266 326q17 25 53 25q34 0 43 -25q45 -120 179 -326q9 -14 -17 -28q-37 -22 -55 -6q-87 77 -174 196q-115 -107 -238 -196 q-17 -17 -51 6q-20 13 -6 28zM205 354q0 -278 170 -278q93 0 148 95t55 255q0 281 -162 281q-95 0 -153 -95t-58 -258z" />
<glyph unicode="&#xf5;" horiz-adv-x="846" d="M43 315q0 212 130 352q121 130 282 130q139 0 213 -85q71 -82 71 -231q0 -212 -124 -356q-120 -137 -283 -137q-289 0 -289 327zM105 993q69 78 127 137l5 6q55 56 108 56q28 0 142 -36t124 -36q31 0 57 21l107 82q13 10 43 -17q19 -17 6 -30q-51 -62 -127 -138 q-60 -59 -113 -59q-27 0 -140.5 35t-125.5 35q-32 0 -57 -19q-40 -32 -107 -82q-15 -12 -43 15q-18 17 -6 30zM205 354q0 -278 170 -278q93 0 148 95t55 255q0 281 -162 281q-95 0 -153 -95t-58 -258z" />
<glyph unicode="&#xf6;" horiz-adv-x="846" d="M43 315q0 212 130 352q121 130 282 130q139 0 213 -85q71 -82 71 -231q0 -212 -124 -356q-120 -137 -283 -137q-289 0 -289 327zM183 1040q0 52 36 90.5t82 38.5q89 0 89 -98q0 -54 -34.5 -94.5t-80.5 -40.5q-92 0 -92 104zM205 354q0 -278 170 -278q93 0 148 95t55 255 q0 281 -162 281q-95 0 -153 -95t-58 -258zM545 1040q0 52 36 90.5t83 38.5q51 0 69.5 -21.5t18.5 -76.5q0 -54 -34.5 -94.5t-80.5 -40.5q-92 0 -92 104z" />
<glyph unicode="&#xf7;" horiz-adv-x="1083" d="M59 389q0 45 58 45h805q18 0 18 -16q0 -20 -18 -38t-41 -18h-803q-19 0 -19 27zM395 84q0 51 34.5 86t80.5 35q92 0 92 -105q0 -53 -32 -91t-78 -38q-97 0 -97 113zM395 709q0 51 34.5 85.5t80.5 34.5q92 0 92 -104q0 -54 -32 -91.5t-78 -37.5q-97 0 -97 113z" />
<glyph unicode="&#xf8;" horiz-adv-x="846" d="M8 -55l709 919q12 16 43 -10t22 -41q-45 -56 -710 -922q-13 -13 -44.5 14t-19.5 40zM43 315q0 212 130 352q121 130 282 130q139 0 213 -85q71 -82 71 -231q0 -212 -124 -356q-120 -137 -283 -137q-289 0 -289 327zM205 354q0 -278 170 -278q93 0 148 95t55 255 q0 281 -162 281q-95 0 -153 -95t-58 -258z" />
<glyph unicode="&#xf9;" horiz-adv-x="973" d="M16 621q0 5 2 8q125 162 220 162q100 0 100 -82q0 -37 -49 -263q-43 -197 -43 -229q0 -102 96 -102q73 0 160 134q94 145 129 341l28 160q8 42 86 49q52 4 55 -11q1 -7 -1 -22q-80 -441 -80 -567q0 -95 33 -95q29 0 108 91q2 1 5 2q8 0 19 -13t11 -23q-1 -3 -2 -5 q-121 -162 -217 -162q-92 0 -92 94q0 47 14 143q1 10 -6 11q-8 2 -14 -9q-150 -249 -312 -249q-75 0 -120 44q-48 48 -48 134q0 60 54 284q38 164 38 205q0 29 -32 29q-28 0 -105 -92q-2 -2 -5 -2q-9 0 -20.5 12.5t-11.5 22.5zM256 1241q0 18 45.5 42t85.5 24q20 0 39 -27 q10 -13 42 -129q35 -124 83 -205q7 -11 -14 -22q-33 -18 -47 -4q-118 118 -217 272q-17 25 -17 49z" />
<glyph unicode="&#xfa;" horiz-adv-x="973" d="M16 621q0 5 2 8q125 162 220 162q100 0 100 -82q0 -37 -49 -263q-43 -197 -43 -229q0 -102 96 -102q73 0 160 134q94 145 129 341l28 160q8 42 86 49q52 4 55 -11q1 -7 -1 -22q-80 -441 -80 -567q0 -95 33 -95q29 0 108 91q2 1 5 2q8 0 19 -13t11 -23q-1 -3 -2 -5 q-121 -162 -217 -162q-92 0 -92 94q0 47 14 143q1 10 -6 11q-8 2 -14 -9q-150 -249 -312 -249q-75 0 -120 44q-48 48 -48 134q0 60 54 284q38 164 38 205q0 29 -32 29q-28 0 -105 -92q-2 -2 -5 -2q-9 0 -20.5 12.5t-11.5 22.5zM424 952q71 79 138 200q64 114 75 126 q35 29 54 29q40 0 80 -25q36 -24 36 -41q0 -25 -28 -55q-134 -141 -293 -264q-23 -18 -53 2q-22 14 -9 28z" />
<glyph unicode="&#xfb;" horiz-adv-x="973" d="M16 621q0 5 2 8q125 162 220 162q100 0 100 -82q0 -37 -49 -263q-43 -197 -43 -229q0 -102 96 -102q73 0 160 134q94 145 129 341l28 160q8 42 86 49q52 4 55 -11q1 -7 -1 -22q-80 -441 -80 -567q0 -95 33 -95q29 0 108 91q2 1 5 2q8 0 19 -13t11 -23q-1 -3 -2 -5 q-121 -162 -217 -162q-92 0 -92 94q0 47 14 143q1 10 -6 11q-8 2 -14 -9q-150 -249 -312 -249q-75 0 -120 44q-48 48 -48 134q0 60 54 284q38 164 38 205q0 29 -32 29q-28 0 -105 -92q-2 -2 -5 -2q-9 0 -20.5 12.5t-11.5 22.5zM238 952q177 193 266 326q17 25 53 25 q34 0 43 -25q45 -120 179 -326q9 -14 -17 -28q-37 -22 -55 -6q-87 77 -174 196q-115 -107 -238 -196q-17 -17 -51 6q-20 13 -6 28z" />
<glyph unicode="&#xfc;" horiz-adv-x="973" d="M16 621q0 5 2 8q125 162 220 162q100 0 100 -82q0 -37 -49 -263q-43 -197 -43 -229q0 -102 96 -102q73 0 160 134q94 145 129 341l28 160q8 42 86 49q52 4 55 -11q1 -7 -1 -22q-80 -441 -80 -567q0 -95 33 -95q29 0 108 91q2 1 5 2q8 0 19 -13t11 -23q-1 -3 -2 -5 q-121 -162 -217 -162q-92 0 -92 94q0 47 14 143q1 10 -6 11q-8 2 -14 -9q-150 -249 -312 -249q-75 0 -120 44q-48 48 -48 134q0 60 54 284q38 164 38 205q0 29 -32 29q-28 0 -105 -92q-2 -2 -5 -2q-9 0 -20.5 12.5t-11.5 22.5zM228 1040q0 52 36 90.5t82 38.5q89 0 89 -98 q0 -54 -34.5 -94.5t-80.5 -40.5q-92 0 -92 104zM590 1040q0 52 36 90.5t83 38.5q51 0 69.5 -21.5t18.5 -76.5q0 -54 -34.5 -94.5t-80.5 -40.5q-92 0 -92 104z" />
<glyph unicode="&#xfd;" horiz-adv-x="963" d="M-86 -440q13 80 66 73q79 -10 114 -10q116 0 180 64q58 57 73 99q11 33 11 120q0 213 -55 479q-59 283 -127 283q-64 0 -125 -80q-2 -3 -7 -3q-10 0 -23 10.5t-13 21.5q0 5 2 8q50 85 94 121q54 45 132 45q83 0 128 -70q41 -64 76 -234q50 -239 60 -507q164 259 243 557 q6 21 6 38q0 62 -73 62q-29 0 -72 -2q-21 -1 -29 35q-7 36 7 47q124 74 174 74q103 0 103 -107q0 -41 -15 -96q-93 -326 -258 -605q-171 -287 -379 -456q-78 -63 -111 -57q-75 12 -130.5 39t-51.5 51zM462 952q71 79 138 200q64 114 75 126q35 29 54 29q40 0 80 -25 q36 -24 36 -41q0 -25 -28 -55q-134 -141 -293 -264q-23 -18 -53 2q-22 14 -9 28z" />
<glyph unicode="&#xfe;" horiz-adv-x="905" d="M-53 -487q0 9 14 60q16 56 19 69q108 610 194 1177q26 180 62 418q10 68 -21 68q-34 0 -135 -27q-9 -2 -18.5 13.5t-9.5 28.5q0 7 3 9q197 98 264 98q84 0 84 -67q0 -8 -2 -17q-39 -276 -155 -866q-2 -8 6 -9q8 0 14 7q164 320 328 320q201 0 201 -258q0 -244 -176 -415 q-148 -145 -289 -145q-84 0 -158 13q-18 -109 -53 -322q-3 -16 -3 -26q0 -28 22 -40t87 -22q36 -5 42 -8q20 -9 14 -35q-8 -33 -37 -33q-129 0 -246 -14q-51 -6 -51 23zM213 178q0 -96 158 -96q105 0 176 92q88 112 88 330q0 160 -111 160q-67 0 -178 -170 q-133 -205 -133 -316z" />
<glyph unicode="&#xff;" horiz-adv-x="963" d="M-86 -440q13 80 66 73q79 -10 114 -10q116 0 180 64q58 57 73 99q11 33 11 120q0 213 -55 479q-59 283 -127 283q-64 0 -125 -80q-2 -3 -7 -3q-10 0 -23 10.5t-13 21.5q0 5 2 8q50 85 94 121q54 45 132 45q83 0 128 -70q41 -64 76 -234q50 -239 60 -507q164 259 243 557 q6 21 6 38q0 62 -73 62q-29 0 -72 -2q-21 -1 -29 35q-7 36 7 47q124 74 174 74q103 0 103 -107q0 -41 -15 -96q-93 -326 -258 -605q-171 -287 -379 -456q-78 -63 -111 -57q-75 12 -130.5 39t-51.5 51zM236 1040q0 52 36 90.5t82 38.5q89 0 89 -98q0 -54 -34.5 -94.5 t-80.5 -40.5q-92 0 -92 104zM598 1040q0 52 36 90.5t83 38.5q51 0 69.5 -21.5t18.5 -76.5q0 -54 -34.5 -94.5t-80.5 -40.5q-92 0 -92 104z" />
<glyph unicode="&#x152;" horiz-adv-x="2066" d="M113 547q0 339 234 563q221 211 521 211q117 0 247.5 -8t156.5 -8q372 0 608 14q61 4 61 -7q0 -4 -4 -12q-34 -120 -43 -225q-5 -31 -32 -31q-26 0 -35 27q-15 69 -32 95q-25 38 -83 48q-45 9 -321 9q-32 0 -41 -11q-5 -6 -9 -30l-53 -418q-2 -18 3 -21.5t24 -3.5 q87 2 252 13q47 5 80 112q12 41 49 31q29 -8 20 -31q-49 -168 -61 -354q-2 -24 -33 -29q-31 -4 -31 33q0 65 -5 83q-11 42 -56 48q-74 10 -238 10q-18 0 -18 -14q-10 -82 -55 -436q-2 -16 -2 -29q0 -70 104 -86q26 -4 166 -4q236 0 319 174q20 41 47 27q32 -7 21 -37 q-40 -113 -62 -240q-3 -19 -61 -16q-156 8 -631 8q-62 0 -189.5 -7t-225.5 -7q-269 0 -428 144q-164 150 -164 415zM307 586q0 -236 124.5 -369t342.5 -133q261 0 275 109l104 849q2 17 2 32q0 78 -68 112q-74 37 -253 37q-234 0 -378 -169q-149 -174 -149 -468z" />
<glyph unicode="&#x153;" horiz-adv-x="1278" d="M43 315q0 208 125 349q118 133 274 133q172 0 226 -148q126 148 299 148q213 0 213 -154q0 -107 -114 -181q-109 -71 -374 -145q2 -112 51 -172q44 -55 113 -55q83 0 184 68q32 21 54 8q18 -15 18 -32t-18 -32q-150 -114 -301 -114q-166 0 -222 143q-99 -143 -260 -143 q-268 0 -268 327zM205 354q0 -278 147 -278q88 0 145.5 98t57.5 252q0 281 -149 281q-94 0 -148 -101q-53 -97 -53 -252zM690 381q185 59 257.5 107t72.5 116q0 49 -29.5 80t-77.5 31q-83 0 -147 -91q-65 -95 -76 -243z" />
<glyph unicode="&#x178;" horiz-adv-x="1495" d="M100 1276q5 46 47 41q172 -22 420 18q28 5 39 4q18 -2 15 -34q0 -21 -54 -41q-90 -35 -90 -76q0 -18 15 -43q139 -235 264 -488q9 -18 15 -18t20 18q112 147 339 445q34 45 34 75q0 46 -77 74q-42 16 -36 47q9 35 67 27q181 -24 332 -4q26 3 33.5 -2t5.5 -29 q-3 -34 -68 -53q-71 -22 -170 -137q-268 -314 -434 -549q-16 -126 -45 -354q-3 -28 -3 -44q0 -39 22 -57.5t86 -34.5q55 -13 47 -49q-8 -23 -25 -25q-4 -1 -41 3q-187 17 -369 2q-58 -11 -61 24q-3 33 37 43q82 22 109 53t36 113q11 93 35 273q-97 255 -358 637 q-66 95 -146 112l-5 1q-38 8 -36 28zM549 1552q0 52 36 90.5t82 38.5q89 0 89 -98q0 -54 -34.5 -94.5t-80.5 -40.5q-92 0 -92 104zM911 1552q0 52 36 90.5t83 38.5q51 0 69.5 -21.5t18.5 -76.5q0 -54 -34.5 -94.5t-80.5 -40.5q-92 0 -92 104z" />
<glyph unicode="&#x2c6;" horiz-adv-x="979" d="M207 952q177 193 266 326q17 25 53 25q34 0 43 -25q45 -120 179 -326q9 -14 -17 -28q-37 -22 -55 -6q-87 77 -174 196q-115 -107 -238 -196q-17 -17 -51 6q-20 13 -6 28z" />
<glyph unicode="&#x2dc;" horiz-adv-x="979" d="M125 993q69 78 127 137l5 6q55 56 108 56q28 0 142 -36t124 -36q31 0 57 21l107 82q13 10 43 -17q19 -17 6 -30q-51 -62 -127 -138q-60 -59 -113 -59q-27 0 -140.5 35t-125.5 35q-32 0 -57 -19q-40 -32 -107 -82q-15 -12 -43 15q-18 17 -6 30z" />
<glyph unicode="&#x2000;" horiz-adv-x="920" />
<glyph unicode="&#x2001;" horiz-adv-x="1840" />
<glyph unicode="&#x2002;" horiz-adv-x="920" />
<glyph unicode="&#x2003;" horiz-adv-x="1840" />
<glyph unicode="&#x2004;" horiz-adv-x="613" />
<glyph unicode="&#x2005;" horiz-adv-x="460" />
<glyph unicode="&#x2006;" horiz-adv-x="306" />
<glyph unicode="&#x2007;" horiz-adv-x="306" />
<glyph unicode="&#x2008;" horiz-adv-x="230" />
<glyph unicode="&#x2009;" horiz-adv-x="368" />
<glyph unicode="&#x200a;" horiz-adv-x="102" />
<glyph unicode="&#x2010;" horiz-adv-x="690" d="M84 473q0 112 51 119q56 7 383 67q37 7 45 6q19 -4 19 -32q0 -99 -60 -109q-177 -27 -344 -75q-46 -14 -65 -14q-29 0 -29 38z" />
<glyph unicode="&#x2011;" horiz-adv-x="690" d="M84 473q0 112 51 119q56 7 383 67q37 7 45 6q19 -4 19 -32q0 -99 -60 -109q-177 -27 -344 -75q-46 -14 -65 -14q-29 0 -29 38z" />
<glyph unicode="&#x2012;" horiz-adv-x="690" d="M84 473q0 112 51 119q56 7 383 67q37 7 45 6q19 -4 19 -32q0 -99 -60 -109q-177 -27 -344 -75q-46 -14 -65 -14q-29 0 -29 38z" />
<glyph unicode="&#x2013;" horiz-adv-x="1012" d="M70 510q0 34 22 69q26 39 58 37q187 -9 696 2q66 2 65 -23q-1 -35 -25 -64q-25 -32 -59 -31q-436 11 -663 -11q-94 -8 -94 21z" />
<glyph unicode="&#x2014;" horiz-adv-x="1815" d="M67 509q0 25 18 59t38 44q12 5 24 4q84 -4 750 -2q630 2 750 4q66 2 65 -23q-2 -35 -25 -64q-25 -32 -59 -31q-108 3 -734 0q-660 -4 -732 -11q-95 -8 -95 20z" />
<glyph unicode="&#x2018;" horiz-adv-x="504" d="M96 915q0 249 266 396q20 10 29 10q17 0 25 -33q2 -8 2 -14q0 -20 -66 -57q-52 -30 -85 -72q-29 -38 -29 -64q0 -37 47 -73q67 -53 67 -109q0 -55 -35.5 -92t-91.5 -37q-129 0 -129 145z" />
<glyph unicode="&#x2019;" horiz-adv-x="504" d="M94 833q0 21 66 58q52 29 85 72q29 37 29 63q0 37 -47 74q-67 52 -67 108q0 55 35.5 92t91.5 37q129 0 129 -145q0 -248 -266 -395q-20 -11 -29 -11q-17 0 -25 33q-2 8 -2 14z" />
<glyph unicode="&#x201a;" horiz-adv-x="504" d="M2 -283q0 21 66 58q51 29 85 72q29 37 29 63q0 37 -47 74q-67 52 -67 108q0 55 35.5 92t91.5 37q129 0 129 -145q0 -249 -267 -395q-19 -11 -29 -11q-16 0 -24 33q-2 8 -2 14z" />
<glyph unicode="&#x201c;" horiz-adv-x="918" d="M96 915q0 249 266 396q20 10 29 10q17 0 25 -33q2 -8 2 -14q0 -20 -66 -57q-52 -30 -85 -72q-29 -38 -29 -64q0 -37 47 -73q67 -53 67 -109q0 -55 -35.5 -92t-91.5 -37q-129 0 -129 145zM539 915q0 249 266 396q19 10 29 10q16 0 24 -33q2 -8 2 -14q0 -20 -65 -57 q-52 -30 -86 -72q-29 -38 -29 -64q0 -37 47 -73q68 -53 68 -109q0 -55 -35.5 -92t-91.5 -37q-129 0 -129 145z" />
<glyph unicode="&#x201d;" horiz-adv-x="918" d="M94 833q0 21 66 58q52 29 85 72q29 37 29 63q0 37 -47 74q-67 52 -67 108q0 55 35.5 92t91.5 37q129 0 129 -145q0 -248 -266 -395q-20 -11 -29 -11q-17 0 -25 33q-2 8 -2 14zM537 833q0 21 65 58q52 29 85 72q30 37 30 63q0 37 -47 74q-68 52 -68 108q0 55 35.5 92 t91.5 37q129 0 129 -145q0 -248 -266 -395q-19 -11 -29 -11q-17 0 -24 33q-2 8 -2 14z" />
<glyph unicode="&#x201e;" horiz-adv-x="918" d="M2 -283q0 21 66 58q51 29 85 72q29 37 29 63q0 37 -47 74q-67 52 -67 108q0 55 35.5 92t91.5 37q129 0 129 -145q0 -249 -267 -395q-19 -11 -29 -11q-16 0 -24 33q-2 8 -2 14zM445 -283q0 21 65 58q52 29 85 72q30 37 30 63q0 37 -47 74q-68 52 -68 108q0 55 35.5 92 t91.5 37q129 0 129 -145q0 -249 -266 -395q-20 -11 -29 -11q-17 0 -25 33q-1 8 -1 14z" />
<glyph unicode="&#x2022;" horiz-adv-x="868" d="M176 625q0 115 73.5 192.5t178.5 77.5q234 0 234 -258q0 -120 -69 -199q-69 -82 -175 -82q-242 0 -242 269z" />
<glyph unicode="&#x2026;" horiz-adv-x="1542" d="M63 102q0 59 40 99.5t92 40.5q110 0 110 -123q0 -61 -37 -104.5t-90 -43.5q-115 0 -115 131zM582 102q0 61 34.5 100.5t88.5 39.5q120 0 120 -123q0 -63 -32.5 -105.5t-83.5 -42.5q-127 0 -127 131zM1102 98q0 60 38.5 104t90.5 44q115 0 115 -131q0 -59 -40 -99.5 t-94 -40.5q-110 0 -110 123z" />
<glyph unicode="&#x202f;" horiz-adv-x="368" />
<glyph unicode="&#x2039;" horiz-adv-x="659" d="M56 379q0 15 26 35l467 358q28 22 31 4q5 -37 -29 -74l-303 -323l215 -328q26 -40 8 -67q-10 -16 -31 4l-366 360q-18 18 -18 31z" />
<glyph unicode="&#x203a;" horiz-adv-x="659" d="M37 -14q-5 37 29 73l303 324l-215 328q-27 40 -9 67q11 16 31 -4l367 -360q18 -18 18 -31q0 -15 -26 -35l-467 -358q-29 -22 -31 -4z" />
<glyph unicode="&#x205f;" horiz-adv-x="460" />
<glyph unicode="&#x20ac;" horiz-adv-x="893" d="M-18 385q0 59 53 59h77q46 173 186 276q133 99 300 99q95 0 159 -38t64 -91q0 -100 -76 -100q-64 0 -114 76q-44 65 -111 65q-105 0 -178 -85q-67 -78 -85 -202h372q12 0 12 -10q0 -21 -16 -45q-18 -27 -39 -27h-334q4 -276 233 -276q97 0 222 82q12 8 26 8q12 0 12 -26 q0 -37 -102 -94q-115 -64 -235 -64q-153 0 -237 86q-79 79 -79 211q0 37 4 73h-100q-14 0 -14 23z" />
<glyph unicode="&#x2122;" horiz-adv-x="1753" d="M94 1149q17 56 17 147q0 21 41 23q96 -10 239 -10q243 0 320 10q38 5 43 -14q12 -52 12 -156q0 -24 -21 -29q-28 -7 -36 21q-20 62 -49 83q-39 27 -136 27q-37 0 -37 -18v-488q0 -40 66 -57q40 -10 35 -35t-43 -20q-110 14 -215 0q-40 -5 -45 20q-6 29 26 37q66 17 66 70 v473q0 18 -37 18q-83 0 -121 -23.5t-71 -96.5q-11 -23 -35 -17q-27 6 -19 35zM834 664q0 22 30 28q53 11 56 64l18 442q2 45 -53 66q-30 11 -27 36t35 19q62 -12 129 -4q44 5 57 -25q77 -174 199 -459q7 -16 16 5q34 70 213 440q17 35 41 35q51 0 129 10q43 6 43 -27 q0 -25 -34 -30q-55 -9 -54 -37l19 -484q1 -36 47 -47q37 -8 37 -32q0 -30 -43 -27q-130 9 -201 0q-35 -5 -35 27q0 22 31 28q56 12 55 41q-5 112 -16 402q-1 9 -5 9t-8 -7q-83 -170 -210 -457q-20 -51 -37 -57q-27 -10 -39 34q-32 114 -217 500q-10 -183 -17 -395 q-1 -53 56 -66q38 -8 38 -32q0 -30 -43 -27q-114 8 -176 0q-34 -5 -34 27z" />
<glyph unicode="&#x25fc;" horiz-adv-x="780" d="M0 0v780h780v-780h-780z" />
<glyph unicode="&#xfb01;" horiz-adv-x="1057" d="M-231 -434q4 104 65 104q10 0 55 -22q26 -19 58 -19q133 0 170 346l71 670q5 47 -36 49l-70 4q-26 2 -16 27q15 39 116 39h19q29 265 142 433q151 224 427 224q92 0 144 -33q46 -30 44 -71q-3 -111 -73 -111q-52 0 -101 43q-62 56 -120 56q-151 0 -220 -117 q-68 -112 -100 -404l-2 -18l207 2q72 1 140.5 17t88.5 16q78 0 78 -92q0 -56 -55 -267q-68 -258 -68 -313q0 -29 35 -29q30 0 104 90q3 2 6 2q9 0 20.5 -12t11.5 -23q0 -4 -3 -7q-129 -160 -221 -160q-102 0 -102 82q0 25 59 264q64 255 64 295q0 32 -56 42q-73 13 -317 13 l-68 -623q-27 -254 -135 -406.5t-250 -152.5q-115 0 -112 62z" />
<glyph unicode="&#xfb02;" horiz-adv-x="1081" d="M-231 -434q4 104 65 104q10 0 55 -22q26 -19 58 -19q133 0 170 346l71 670q5 47 -38 49l-66 4q-26 2 -18 24q16 42 118 42h19q28 259 140 417q148 208 425 208q96 0 131 20q45 26 78 16q43 -17 43 -58q0 -10 -2 -24l-180 -1007q-39 -203 -39 -207q0 -29 35 -29 q30 0 108 90q3 3 7 3q8 0 18 -12t10 -23q0 -5 -2 -8q-130 -160 -230 -160q-96 0 -96 78q0 38 43 268q38 216 127 717q9 48 9 85q0 144 -142 144q-155 0 -230 -105q-79 -111 -110 -393l-2 -18l223 2q22 0 23 -16q1 -5 -6 -35q-11 -47 -97 -41l-153 10l-68 -623 q-27 -254 -135 -406.5t-250 -152.5q-115 0 -112 62z" />
</font>
</defs>
</svg>
